<?xml version="1.0" encoding="utf-8"?>
<!-- Generator: Adobe Illustrator 25.2.3, SVG Export Plug-In . SVG Version: 6.00 Build 0)  -->
<svg version="1.1" id="Layer_1" xmlns="http://www.w3.org/2000/svg" xmlns:xlink="http://www.w3.org/1999/xlink" x="0px" y="0px" width="336.5px" height="62.7px"
	 viewBox="0 0 335.5 62.7" style="enable-background:new 0 0 335.5 62.7;" xml:space="preserve">
<style type="text/css">
	.st0{fill:#124321;}
</style>
<g>
	<path class="st0" d="M34.3,12.9v25.6h-2.6v-1.3H12.6v1.3H10V12.9H34.3z M31.6,34.8V15.4h-19v19.4H31.6z M29.5,22.3
		c-0.7,2.6-1.8,4.9-3.1,7c0.5,1.2,1.1,2,1.9,2.2c0.4,0.1,0.6-1.1,0.7-2.9c0.5,0.5,1.2,1,1.7,1.3c-0.4,3.2-1.6,4.5-3.2,3.7
		c-1.1-0.2-1.9-1.1-2.6-2.4c-1,1.1-2.2,2-3.5,2.9c-0.2-0.4-1.1-1.3-1.4-1.7c0.7-0.5,1.6-1,2.2-1.6c-2.9,0.5-5.9,1-8.2,1.4l-0.1-1.9
		c2.2-0.2,5.3-0.7,8.5-1.3v1.8c0.6-0.6,1.2-1.2,1.7-1.8c-0.7-2.2-1.1-5.1-1.4-8.2h-8.5v-2h8.4C22.2,18,22.2,17,22.2,16h2.2
		c0,1,0.1,1.9,0.1,2.8h4.1c-0.6-0.7-1.8-1.4-2.9-2l1.2-1.2c1.1,0.5,2.3,1.3,2.9,1.9l-1.3,1.3h1.7v2h-5.9c0.2,2,0.5,4.1,0.8,5.8
		c0.7-1.4,1.3-2.9,1.8-4.6L29.5,22.3z M21.3,22.4V28h-6.5v-5.6H21.3z M19.4,23.9h-2.8v2.5h2.8V23.9z"/>
	<path class="st0" d="M64.5,34.6v2.8H38.6v-2.8h14.1c1.4-3.6,3.1-9.4,4-13.5l3,0.6c-1.1,4.2-2.8,9.4-4.2,12.8h8.9v0.1H64.5z
		 M63.4,19.8H39.9V17h23.5V19.8z M46.3,33.5c-0.4-3.1-1.6-8.2-2.6-11.9l2.8-0.7c1.1,3.7,2.3,8.6,2.8,11.8L46.3,33.5z M50.7,16.9
		c-0.2-1.3-0.8-3.2-1.4-4.7l2.6-0.7c0.6,1.4,1.2,3.3,1.6,4.6L50.7,16.9z"/>
	<path class="st0" d="M93.7,13.3v1.8H82.3v1.2h9.2V18h-21v-1.7h9v-1.2H68.3v-1.8h11.2v-1.7h2.8v1.6L93.7,13.3L93.7,13.3z M82.2,35.9
		h11.4v1.9H68.4v-1.9h11.2v-1.3h-8.4v-1.7h8.4v-1.2c-5.3,0.1-6.2,0.2-6.8,0.4c-0.1-0.4-0.4-1.3-0.6-1.8c0.5,0,1-0.1,1.6-0.4
		c0.4-0.1,1.4-0.6,2.4-1.2h-4.6V27h18.5v1.6h-2.8c1.4,0.8,2.8,1.8,3.7,2.5l-1.5,1.3c-0.4-0.4-0.8-0.7-1.4-1.2l-5.8,0.1v1.2h8.8v1.7
		h-8.8L82.2,35.9L82.2,35.9z M68.7,24.4h24.5v4.2h-2.5v-2.4H71.1v2.4h-2.4V24.4z M90.3,19.1v4.2H71.6v-4.2
		C71.6,19.1,90.3,19.1,90.3,19.1z M87.7,20.5H74.3v1.4h13.5v-1.4H87.7z M79.2,28.8c-0.8,0.6-1.7,1-2.5,1.4l9.2-0.1
		c-0.6-0.4-1.3-0.7-1.9-1.1l0.2-0.1L79.2,28.8C79.2,28.9,79.2,28.8,79.2,28.8z"/>
	<path class="st0" d="M101,24.6c-0.8-1-2.6-2.2-4.1-3l1.4-1.8c1.4,0.7,3.4,1.9,4.2,2.8L101,24.6z M97.5,36.7c1.1-2.2,2.5-6,3.6-9.2
		l2.2,1.4c-1,3-2.2,6.6-3.4,9.2L97.5,36.7z M101.5,17.1c-0.7-1-2.5-2.3-4-3.2l1.6-1.8c1.4,0.7,3.2,2,4.1,2.9L101.5,17.1z
		 M104.9,22.7c-0.2,1.4-0.7,2.9-1.2,3.8c-0.2-0.2-0.8-0.6-1.2-0.8c0.6-1,0.8-2.2,1.1-3.4L104.9,22.7z M108.7,21.5
		c0-0.2-0.1-0.6-0.2-0.8c-3.7,0.5-4.5,0.6-4.9,0.8c-0.1-0.2-0.4-0.8-0.6-1.2c0.5,0,0.8-0.5,1.3-1c0.2-0.2,1-1.1,1.6-2
		c-1.7,0.1-2.2,0.2-2.5,0.4c-0.1-0.2-0.4-1-0.6-1.2c0.4,0,0.6-0.4,1-0.7c0.2-0.5,1.3-2,1.7-3.6l1.8,0.5c-0.5,1.1-1.2,2.3-1.9,3.2
		l1.7-0.1c0.2-0.4,0.5-0.8,0.7-1.2l1.6,0.6c-1,1.6-2.2,3.1-3.4,4.5l2.2-0.2c-0.1-0.2-0.4-0.6-0.5-0.8l1.2-0.5
		c0.6,0.8,1.1,2.2,1.3,2.9L108.7,21.5z M122.5,32.5c0,0,0,0.7-0.1,1c-0.5,2.4-1.1,3.6-1.8,4.2c-0.7,0.5-1.3,0.6-2.4,0.7
		c-0.8,0-2.6,0-4.5-0.1c0-0.6-0.4-1.4-0.7-2c1.8,0.1,3.6,0.2,4.3,0.2c0.6,0,1,0,1.2-0.2c0.4-0.2,0.7-1,1.1-2h-15
		c0.5-1.3,1-3,1.3-4.6h12.7v-1.2H105v-1.6h16.2v4.5h-13.1l-0.4,1.2C107.7,32.5,122.5,32.5,122.5,32.5z M106.1,26
		c0-1-0.2-2.4-0.6-3.5l1.3-0.4c0.4,1.1,0.6,2.4,0.7,3.4L106.1,26z M108.6,25.3c-0.1-0.8-0.5-2.2-0.8-3.1l1.2-0.4c0.5,1,0.8,2.2,1,3
		L108.6,25.3z M116.5,16.1h-7v-1.6h2.9c-0.2-0.6-0.7-1.6-1-2.2l1.8-0.4c0.5,0.7,1,1.7,1.2,2.3l-1.3,0.4h3.4V16
		C116.6,16.1,116.5,16.1,116.5,16.1z M110.4,21.5h5.4v4.2h-5.4V21.5z M115.8,18.5h-5.4v-1.4h5.4V18.5z M110.4,19.2h5.4v1.3h-5.4
		V19.2z M112.1,24.5h2v-1.6h-2V24.5z M118.6,22.5c-0.2,1.4-0.7,2.9-1.2,3.8c-0.2-0.2-0.8-0.7-1.2-0.8c0.6-1,0.8-2.2,1.1-3.4
		L118.6,22.5z M122.3,21.5c-0.1-0.2-0.2-0.6-0.4-1c-3.7,0.5-4.5,0.7-4.9,0.8c-0.1-0.2-0.4-0.8-0.6-1.2c0.4,0,0.8-0.4,1.3-1
		c0.4-0.4,1.1-1.1,1.7-2c-1.7,0.1-2.2,0.2-2.5,0.4c-0.1-0.2-0.4-1-0.6-1.2c0.4,0,0.6-0.4,1-0.7c0.2-0.4,1.3-2,1.7-3.6l1.6,0.6
		c-0.5,1.1-1.2,2.3-1.8,3.2l1.8-0.1c0.2-0.5,0.5-0.8,0.7-1.3l1.6,0.7c-1.1,1.6-2.2,3.1-3.5,4.5l2.2-0.2c-0.1-0.2-0.4-0.6-0.5-0.8
		l1.2-0.5c0.6,1,1.2,2.2,1.4,3L122.3,21.5z M119.6,26.3c0-1-0.2-2.5-0.6-3.7l1.3-0.4c0.4,1.2,0.6,2.6,0.7,3.6L119.6,26.3z
		 M122.4,21.7c0.6,1.2,1.1,2.6,1.2,3.6l-1.2,0.6c-0.1-1-0.6-2.5-1.1-3.7L122.4,21.7z"/>
	<path class="st0" d="M142,22.5c1.9,6.1,5.8,10.9,11.2,13.2c-0.7,0.6-1.6,1.7-2,2.5c-5.4-2.5-9-7.3-11.3-13.5
		c-1.4,5.2-4.6,10.3-11.3,13.5c-0.5-0.7-1.3-1.7-2-2.3c7-3,9.7-8.3,10.9-13.6h-10.3v-2.6H138c0.4-2.9,0.4-5.8,0.4-8h2.9
		c0,2.3,0,5.1-0.4,8h11.8v2.8H142z"/>
	<path class="st0" d="M182.2,32.9h-11.3v2.8c0,1.3-0.2,1.9-1.3,2.3c-1.1,0.4-2.5,0.4-4.8,0.4c-0.1-0.7-0.5-1.7-0.8-2.3
		c1.6,0,3.2,0,3.7,0s0.6-0.1,0.6-0.5V33h-11.9v-2.2h11.9v-1.1c1.3-0.5,2.6-1.2,3.8-1.9h-10.4v-1.9H175l0.6-0.1l1.6,1.4
		c-1.7,1.3-4,2.5-6.2,3.5v0.2h11.3v2H182.2z M159.4,27.6h-2.5V22h2.2l-0.5-8.6c1.7-0.2,4.2-1,5.8-1.4l1.2,1.6
		c-1.2,0.5-2.8,0.8-4.2,1.1l0.1,1.2h4v1.7h-4l0.1,1.3h3.8v1.7c0.8-0.4,1.7-0.8,2.4-1.3c-0.6-0.4-1.3-0.7-1.9-1.1l1.3-1.1
		c0.6,0.4,1.3,0.7,2,1.1c0.5-0.5,1-1,1.3-1.4l2,0.4c-0.5,0.6-1,1.2-1.6,1.8c0.7,0.5,1.4,1,1.9,1.4l-1.3,1.2c-0.5-0.5-1.1-1-1.9-1.6
		c-0.8,0.7-1.8,1.2-2.6,1.7h10.2c0-0.5,0.1-0.8,0.1-1.3h-3.8v-1.7h4l0.1-1.3h-4v-1.7h4.1v-1.3h-4.2v-1.8h7c-0.1,2.9-0.4,6.7-0.6,9.4
		h2.2v5.6h-2.6v-3.5h-19.7v3.5H159.4z M161.6,22.1h4.9c-0.2-0.4-1-1.1-1.3-1.3h-3.6L161.6,22.1L161.6,22.1z M171.3,16.8
		c-0.5-0.5-1.1-0.8-1.8-1.3c-0.8,0.6-1.7,1.2-2.5,1.6c-0.4-0.2-1-1-1.4-1.2c0.8-0.4,1.7-0.8,2.4-1.3c-0.6-0.4-1.2-0.7-1.8-1l1.3-1.1
		c0.6,0.2,1.3,0.6,1.9,1c0.5-0.4,0.8-0.8,1.2-1.3l1.8,0.5c-0.5,0.6-1,1.2-1.4,1.7c0.7,0.5,1.3,0.8,1.8,1.3L171.3,16.8z"/>
	<path class="st0" d="M211.6,34.9v2.5h-25.8v-2.6h11.5v-6.7H189v-2.5h8.3v-5.9h-6.5c-0.8,1.7-1.8,3.2-2.9,4.5
		c-0.6-0.5-1.7-1.2-2.4-1.6c2.3-2.4,4.2-6.5,5.2-10.6l2.8,0.6c-0.5,1.4-1,2.9-1.4,4.3h5.2v-5.2h2.8v5.4h10.2v2.6h-10.2v5.9h9.1v2.5
		h-9.1v6.7h11.4L211.6,34.9L211.6,34.9z"/>
	<path class="st0" d="M230.4,12.8c-0.1,0.2-0.4,0.5-0.6,0.7c2.6,2.8,7.3,5.2,11.8,6.4c-0.6,0.6-1.4,1.8-1.9,2.5
		c-2-0.6-4-1.4-5.9-2.5v1.8h-11.9v-1.8c-1.9,1.1-4,1.9-6,2.6c-0.4-0.8-1-1.9-1.6-2.6c5.3-1.3,11-4.8,13.7-8.6L230.4,12.8z
		 M226.3,33.8h-6.6v2.4h-2.5V23.7h9.1V33.8z M219.6,26.2v5.2h4.1v-5.3C223.7,26.2,219.6,26.2,219.6,26.2z M233,19.3
		c-1.8-1.2-3.4-2.5-4.7-4c-1.4,1.4-3.2,2.8-5.1,4H233z M239.2,31.8c0,1.3-0.2,2-1.1,2.4c-0.8,0.5-2.3,0.5-4.3,0.5
		c-0.1-0.7-0.5-1.8-0.7-2.4c1.4,0,2.8,0,3,0c0.4,0,0.5-0.1,0.5-0.5v-5.6h-4.8v12.2h-2.6V23.7h10.1L239.2,31.8L239.2,31.8z"/>
	<path class="st0" d="M253.7,29.5c-0.4-0.8-1.4-2.5-2.3-3.8v12.7h-2.6V26.5c-1.1,2.6-2.4,5.1-3.7,6.8c-0.2-0.7-0.8-1.8-1.3-2.5
		c1.7-1.9,3.6-5.4,4.6-8.5h-4v-2.5h4.6v-3.9c-1.2,0.2-2.5,0.4-3.6,0.6c-0.1-0.6-0.5-1.6-0.7-2c3.2-0.5,7.1-1.3,9.2-2.3l1.5,2.2
		c-1.1,0.5-2.4,0.7-3.7,1.1V20h4.1v2.4h-4.1v0.4c0.8,0.8,3.4,3.8,3.8,4.6L253.7,29.5z M267.4,30.9v7.4h-2.6v-7l-9.2,1.6l-0.4-2.5
		l9.6-1.6V11.6h2.6v16.7l3.1-0.5l0.4,2.5L267.4,30.9z M261.2,27c-1-1.2-3-3.1-4.8-4.3l1.7-1.6c1.7,1.2,4,2.9,4.9,4.1L261.2,27z
		 M261.9,19.4c-0.8-1.2-2.9-3-4.5-4.2l1.8-1.6c1.7,1.1,3.6,2.8,4.6,4L261.9,19.4z"/>
	<path class="st0" d="M299.8,32.9h-11.2v2.8c0,1.3-0.2,1.9-1.3,2.3s-2.5,0.4-4.8,0.4c-0.1-0.7-0.5-1.7-0.8-2.3c1.6,0,3.2,0,3.7,0
		s0.6-0.1,0.6-0.5V33h-11.9v-2.2H286v-1.1c1.3-0.5,2.6-1.2,3.8-1.9h-10.3v-1.9h13.1l0.6-0.1l1.6,1.4c-1.7,1.3-4,2.5-6.2,3.5v0.2H300
		L299.8,32.9L299.8,32.9z M277.1,27.6h-2.5V22h2.2l-0.5-8.6c1.7-0.2,4.2-1,5.8-1.4l1.2,1.6c-1.2,0.5-2.8,0.8-4.2,1.1l0.1,1.2h4v1.7
		h-3.8l0.1,1.3h3.8v1.7c0.8-0.4,1.7-0.8,2.4-1.3c-0.6-0.4-1.3-0.7-1.9-1.1l1.3-1.1c0.6,0.4,1.3,0.7,2,1.1c0.5-0.5,1-1,1.3-1.4
		l1.8,0.6c-0.5,0.6-1,1.2-1.6,1.8c0.7,0.5,1.4,1,1.9,1.4l-1.3,1.2c-0.5-0.5-1.1-1-1.9-1.6c-0.8,0.7-1.8,1.2-2.6,1.7h10.2
		c0-0.5,0.1-0.8,0.1-1.3h-3.8v-1.7h4l0.1-1.3h-4v-1.9h4.1v-1.3h-4.2v-1.8h7c-0.1,2.9-0.4,6.7-0.6,9.4h2.2v5.6h-2.6v-3.5h-19.7v3.5
		H277.1z M279.3,22.1h4.9c-0.2-0.4-1-1.1-1.3-1.3h-3.6V22.1z M288.9,16.8c-0.5-0.5-1.1-0.8-1.8-1.3c-0.8,0.6-1.7,1.2-2.5,1.6
		c-0.4-0.2-1-1-1.4-1.2c0.8-0.4,1.7-0.8,2.4-1.3c-0.6-0.4-1.2-0.7-1.8-1l1.3-1.1c0.6,0.2,1.3,0.6,1.9,1c0.5-0.4,0.8-0.8,1.2-1.3
		l1.8,0.5c-0.5,0.6-1,1.2-1.4,1.7c0.7,0.5,1.3,0.8,1.8,1.3L288.9,16.8z"/>
	<path class="st0" d="M312.4,31.2c-1.7,2.2-4.2,4.6-6.5,6.1c-0.5-0.5-1.6-1.4-2.3-1.8c2.2-1.3,4.6-3.4,6.1-5.2L312.4,31.2z
		 M318,28.9v6.6c0,1.4-0.4,2.2-1.4,2.5c-1.1,0.4-2.5,0.5-4.7,0.5c-0.1-0.7-0.6-1.9-1-2.6c1.6,0.1,3.2,0.1,3.7,0
		c0.5,0,0.6-0.1,0.6-0.5V29c-7.3,0.6-8.5,0.7-9.5,1.1c-0.1-0.5-0.5-1.8-0.8-2.5c1-0.1,2.2-0.6,4-1.4c1.1-0.5,3.1-1.4,5.6-2.9
		c-5.8,0.4-6.7,0.5-7.3,0.7c-0.1-0.6-0.5-1.8-0.8-2.5c0.7-0.1,1.4-0.5,2.4-1s3.5-1.9,5.9-3.7c-3.1,0.7-6.5,1.3-9.5,1.8
		c-0.1-0.7-0.5-1.7-0.7-2.3c6.6-1.1,13.9-2.8,18.2-4.6l1.9,2.2c-2.3,1-5.2,1.9-8.4,2.6l1.7,1.1c-1.8,1.3-3.6,2.6-5.6,3.6l6.2-0.2
		c1.1-0.7,2.2-1.4,3.1-2.3l2,1.8c-3.5,2.5-7.3,4.7-11,6.6l10.4-0.7c-0.7-0.8-1.6-1.8-2.3-2.5l2.2-1.1c2.2,1.9,4.6,4.6,5.9,6.5
		l-2.3,1.4c-0.4-0.6-0.8-1.3-1.4-2L318,28.9z M322.3,30c2.2,1.6,5.1,3.8,6.6,5.4l-2.3,1.6c-1.3-1.6-4.1-4-6.5-5.8L322.3,30z"/>
</g>
<g>
	<path class="st0" d="M10.4,54.8c-0.1,0-0.1,0-0.2-0.1c-0.1-0.1-0.1-0.1-0.1-0.2v-9c0-0.1,0-0.2,0.1-0.2c0.1-0.1,0.1-0.1,0.2-0.1
		h2.9c0.8,0,1.5,0.1,2,0.4c0.5,0.3,0.9,0.7,1.2,1.3c0.3,0.6,0.4,1.3,0.4,2.1c0,0.4,0,0.8,0,1.1s0,0.7,0,1.1c0,0.9-0.2,1.6-0.4,2.1
		c-0.3,0.6-0.6,1-1.2,1.2c-0.5,0.3-1.2,0.4-2,0.4H10.4z M11.8,53.2h1.6c0.5,0,0.8-0.1,1.1-0.2c0.3-0.1,0.5-0.4,0.6-0.7
		s0.2-0.8,0.2-1.3c0-0.3,0-0.5,0-0.7c0-0.2,0-0.4,0-0.6c0-0.2,0-0.4,0-0.7c0-0.8-0.2-1.3-0.5-1.7c-0.3-0.4-0.8-0.5-1.5-0.5h-1.5
		V53.2z"/>
	<path class="st0" d="M21.2,54.9c-0.9,0-1.6-0.3-2.1-0.9c-0.5-0.6-0.8-1.4-0.8-2.5c0-0.1,0-0.2,0-0.4s0-0.3,0-0.3
		c0-0.7,0.2-1.3,0.4-1.8c0.2-0.5,0.6-0.9,1-1.2c0.4-0.3,0.9-0.4,1.5-0.4c0.7,0,1.2,0.2,1.6,0.5s0.8,0.7,1,1.3
		c0.2,0.6,0.3,1.2,0.3,1.9v0.3c0,0.1,0,0.2-0.1,0.2c-0.1,0.1-0.1,0.1-0.2,0.1h-4c0,0.1,0,0.1,0,0.1c0,0.3,0.1,0.6,0.2,0.9
		c0.1,0.3,0.2,0.5,0.4,0.7c0.2,0.2,0.4,0.2,0.7,0.2c0.2,0,0.4,0,0.6-0.1c0.2-0.1,0.3-0.2,0.4-0.3s0.2-0.2,0.2-0.2
		c0.1-0.1,0.1-0.2,0.2-0.2c0,0,0.1,0,0.2,0h1c0.1,0,0.1,0,0.2,0.1C23.9,52.9,24,53,24,53c0,0.1-0.1,0.3-0.2,0.5
		c-0.1,0.2-0.3,0.4-0.5,0.6c-0.2,0.2-0.5,0.4-0.9,0.5C22,54.8,21.6,54.9,21.2,54.9z M19.8,50.5h2.7v0c0-0.4-0.1-0.7-0.2-1
		s-0.3-0.5-0.5-0.6c-0.2-0.2-0.4-0.2-0.7-0.2c-0.3,0-0.5,0.1-0.7,0.2c-0.2,0.2-0.4,0.4-0.5,0.6S19.8,50.1,19.8,50.5L19.8,50.5z"/>
	<path class="st0" d="M25.7,57.4c-0.1,0-0.1,0-0.2-0.1s-0.1-0.1-0.1-0.2v-9.2c0-0.1,0-0.2,0.1-0.2c0.1-0.1,0.1-0.1,0.2-0.1h1
		c0.1,0,0.2,0,0.2,0.1c0.1,0.1,0.1,0.1,0.1,0.2v0.6c0.2-0.3,0.4-0.5,0.8-0.7c0.3-0.2,0.7-0.3,1.2-0.3c0.4,0,0.8,0.1,1.1,0.2
		c0.3,0.2,0.6,0.4,0.8,0.7c0.2,0.3,0.4,0.6,0.5,1c0.1,0.4,0.2,0.8,0.2,1.3c0,0.2,0,0.3,0,0.5c0,0.2,0,0.3,0,0.5
		c0,0.5-0.1,0.9-0.2,1.3c-0.1,0.4-0.3,0.7-0.5,1c-0.2,0.3-0.5,0.5-0.8,0.7c-0.3,0.2-0.7,0.2-1.1,0.2c-0.4,0-0.8-0.1-1.1-0.3
		c-0.3-0.2-0.6-0.4-0.7-0.7v3.1c0,0.1,0,0.2-0.1,0.2s-0.1,0.1-0.2,0.1H25.7z M28.4,53.4c0.3,0,0.6-0.1,0.8-0.3
		c0.2-0.2,0.3-0.4,0.4-0.7s0.1-0.6,0.2-0.9c0-0.3,0-0.6,0-0.8c0-0.3-0.1-0.6-0.2-0.9s-0.2-0.5-0.4-0.7c-0.2-0.2-0.5-0.3-0.8-0.3
		c-0.3,0-0.6,0.1-0.8,0.3c-0.2,0.2-0.4,0.4-0.4,0.7c-0.1,0.3-0.1,0.6-0.2,0.8c0,0.2,0,0.3,0,0.5c0,0.2,0,0.4,0,0.5
		c0,0.3,0.1,0.5,0.2,0.8c0.1,0.3,0.3,0.5,0.5,0.6C27.9,53.3,28.1,53.4,28.4,53.4z"/>
	<path class="st0" d="M34.7,54.9c-0.4,0-0.8-0.1-1.1-0.3s-0.6-0.4-0.8-0.8c-0.2-0.3-0.3-0.7-0.3-1.1c0-0.6,0.2-1.2,0.7-1.5
		s1.1-0.6,1.8-0.8l1.7-0.3v-0.3c0-0.4-0.1-0.7-0.3-0.9s-0.5-0.3-0.9-0.3c-0.3,0-0.5,0.1-0.7,0.2c-0.2,0.1-0.3,0.3-0.4,0.5
		c-0.1,0.1-0.2,0.2-0.3,0.2h-1c-0.1,0-0.2,0-0.2-0.1c0-0.1-0.1-0.1-0.1-0.2c0-0.1,0.1-0.3,0.2-0.5s0.3-0.4,0.5-0.6
		c0.2-0.2,0.5-0.4,0.8-0.5c0.3-0.1,0.7-0.2,1.2-0.2c0.5,0,0.9,0.1,1.3,0.2c0.4,0.1,0.6,0.3,0.8,0.6s0.4,0.5,0.5,0.8
		c0.1,0.3,0.1,0.7,0.1,1v4.4c0,0.1,0,0.2-0.1,0.2c-0.1,0.1-0.1,0.1-0.2,0.1h-1c-0.1,0-0.2,0-0.2-0.1c-0.1-0.1-0.1-0.1-0.1-0.2v-0.5
		c-0.1,0.2-0.2,0.3-0.4,0.5c-0.2,0.2-0.4,0.3-0.6,0.4C35.3,54.9,35,54.9,34.7,54.9z M35.1,53.6c0.3,0,0.5-0.1,0.8-0.2
		c0.2-0.1,0.4-0.4,0.5-0.6c0.1-0.3,0.2-0.7,0.2-1.1v-0.3l-1.2,0.2c-0.5,0.1-0.8,0.2-1.1,0.4c-0.2,0.2-0.3,0.4-0.3,0.7
		c0,0.2,0.1,0.4,0.2,0.5c0.1,0.1,0.2,0.2,0.4,0.3S34.9,53.6,35.1,53.6z"/>
	<path class="st0" d="M40,54.8c-0.1,0-0.1,0-0.2-0.1c-0.1-0.1-0.1-0.1-0.1-0.2v-6.5c0-0.1,0-0.2,0.1-0.2c0.1-0.1,0.1-0.1,0.2-0.1h1
		c0.1,0,0.2,0,0.2,0.1c0.1,0.1,0.1,0.1,0.1,0.2v0.6c0.2-0.3,0.4-0.5,0.7-0.7s0.6-0.2,1-0.2h0.5c0.1,0,0.2,0,0.2,0.1
		c0.1,0.1,0.1,0.1,0.1,0.2v1c0,0.1,0,0.2-0.1,0.2c-0.1,0.1-0.1,0.1-0.2,0.1h-0.9c-0.4,0-0.7,0.1-0.9,0.4c-0.2,0.2-0.3,0.6-0.3,1v3.8
		c0,0.1,0,0.2-0.1,0.2c-0.1,0.1-0.1,0.1-0.2,0.1H40z"/>
	<path class="st0" d="M48,54.8c-0.5,0-0.9-0.1-1.2-0.3c-0.3-0.2-0.6-0.5-0.7-0.9c-0.2-0.4-0.2-0.9-0.2-1.4V49h-1
		c-0.1,0-0.1,0-0.2-0.1c-0.1-0.1-0.1-0.1-0.1-0.2v-0.8c0-0.1,0-0.2,0.1-0.2c0.1-0.1,0.1-0.1,0.2-0.1h1v-2.3c0-0.1,0-0.2,0.1-0.2
		s0.1-0.1,0.2-0.1h1c0.1,0,0.1,0,0.2,0.1c0.1,0.1,0.1,0.1,0.1,0.2v2.3h1.5c0.1,0,0.1,0,0.2,0.1c0.1,0.1,0.1,0.1,0.1,0.2v0.8
		c0,0.1,0,0.2-0.1,0.2C49,49,48.9,49,48.8,49h-1.5v3c0,0.4,0.1,0.7,0.2,0.9c0.1,0.2,0.3,0.3,0.6,0.3H49c0.1,0,0.1,0,0.2,0.1
		c0.1,0.1,0.1,0.1,0.1,0.2v0.9c0,0.1,0,0.2-0.1,0.2c-0.1,0.1-0.1,0.1-0.2,0.1H48z"/>
	<path class="st0" d="M50.6,54.8c-0.1,0-0.1,0-0.2-0.1c-0.1-0.1-0.1-0.1-0.1-0.2v-6.5c0-0.1,0-0.2,0.1-0.2c0.1-0.1,0.1-0.1,0.2-0.1
		h0.9c0.1,0,0.1,0,0.2,0.1c0.1,0.1,0.1,0.1,0.1,0.2v0.5c0.2-0.3,0.4-0.5,0.7-0.7c0.3-0.2,0.6-0.3,1-0.3c0.9,0,1.6,0.4,1.9,1.2
		c0.2-0.4,0.5-0.7,0.8-0.9c0.3-0.2,0.7-0.3,1.2-0.3c0.4,0,0.8,0.1,1.1,0.3s0.6,0.6,0.8,1c0.2,0.4,0.3,1,0.3,1.7v4
		c0,0.1,0,0.2-0.1,0.2c-0.1,0.1-0.1,0.1-0.2,0.1h-1c-0.1,0-0.1,0-0.2-0.1c-0.1-0.1-0.1-0.1-0.1-0.2v-3.9c0-0.4-0.1-0.7-0.2-1
		c-0.1-0.2-0.2-0.4-0.4-0.5c-0.2-0.1-0.4-0.2-0.6-0.2c-0.2,0-0.4,0.1-0.5,0.2c-0.2,0.1-0.3,0.3-0.4,0.5c-0.1,0.2-0.2,0.6-0.2,1v3.9
		c0,0.1,0,0.2-0.1,0.2c-0.1,0.1-0.1,0.1-0.2,0.1h-1c-0.1,0-0.1,0-0.2-0.1c-0.1-0.1-0.1-0.1-0.1-0.2v-3.9c0-0.4-0.1-0.7-0.2-1
		c-0.1-0.2-0.3-0.4-0.4-0.5c-0.2-0.1-0.4-0.2-0.6-0.2c-0.2,0-0.4,0.1-0.5,0.2c-0.2,0.1-0.3,0.3-0.4,0.5c-0.1,0.2-0.2,0.6-0.2,1v3.9
		c0,0.1,0,0.2-0.1,0.2c-0.1,0.1-0.1,0.1-0.2,0.1H50.6z"/>
	<path class="st0" d="M63.9,54.9c-0.9,0-1.6-0.3-2.1-0.9c-0.5-0.6-0.8-1.4-0.8-2.5c0-0.1,0-0.2,0-0.4s0-0.3,0-0.3
		c0-0.7,0.2-1.3,0.4-1.8c0.2-0.5,0.6-0.9,1-1.2c0.4-0.3,0.9-0.4,1.5-0.4c0.7,0,1.2,0.2,1.6,0.5s0.8,0.7,1,1.3
		c0.2,0.6,0.3,1.2,0.3,1.9v0.3c0,0.1,0,0.2-0.1,0.2c-0.1,0.1-0.1,0.1-0.2,0.1h-4c0,0.1,0,0.1,0,0.1c0,0.3,0.1,0.6,0.2,0.9
		c0.1,0.3,0.2,0.5,0.4,0.7c0.2,0.2,0.4,0.2,0.7,0.2c0.2,0,0.4,0,0.6-0.1c0.2-0.1,0.3-0.2,0.4-0.3S65,53,65,53
		c0.1-0.1,0.1-0.2,0.2-0.2c0,0,0.1,0,0.2,0h1c0.1,0,0.1,0,0.2,0.1c0.1,0.1,0.1,0.1,0.1,0.2c0,0.1-0.1,0.3-0.2,0.5
		c-0.1,0.2-0.3,0.4-0.5,0.6c-0.2,0.2-0.5,0.4-0.9,0.5C64.7,54.8,64.3,54.9,63.9,54.9z M62.5,50.5h2.7v0c0-0.4-0.1-0.7-0.2-1
		s-0.3-0.5-0.5-0.6c-0.2-0.2-0.4-0.2-0.7-0.2c-0.3,0-0.5,0.1-0.7,0.2c-0.2,0.2-0.4,0.4-0.5,0.6S62.5,50.1,62.5,50.5L62.5,50.5z"/>
	<path class="st0" d="M68.4,54.8c-0.1,0-0.1,0-0.2-0.1c-0.1-0.1-0.1-0.1-0.1-0.2v-6.5c0-0.1,0-0.2,0.1-0.2c0.1-0.1,0.1-0.1,0.2-0.1
		h1c0.1,0,0.1,0,0.2,0.1c0.1,0.1,0.1,0.1,0.1,0.2v0.6c0.2-0.3,0.5-0.5,0.8-0.7c0.3-0.2,0.7-0.3,1.2-0.3c0.5,0,0.9,0.1,1.3,0.4
		c0.4,0.3,0.6,0.6,0.8,1.1c0.2,0.5,0.3,1,0.3,1.7v3.9c0,0.1,0,0.2-0.1,0.2c-0.1,0.1-0.1,0.1-0.2,0.1h-1.1c-0.1,0-0.1,0-0.2-0.1
		c-0.1-0.1-0.1-0.1-0.1-0.2v-3.8c0-0.5-0.1-1-0.3-1.3c-0.2-0.3-0.6-0.5-1-0.5c-0.4,0-0.8,0.2-1,0.5s-0.4,0.7-0.4,1.3v3.8
		c0,0.1,0,0.2-0.1,0.2c-0.1,0.1-0.1,0.1-0.2,0.1H68.4z"/>
	<path class="st0" d="M78.5,54.8c-0.5,0-0.9-0.1-1.2-0.3c-0.3-0.2-0.6-0.5-0.7-0.9c-0.2-0.4-0.2-0.9-0.2-1.4V49h-1
		c-0.1,0-0.1,0-0.2-0.1C75,48.9,75,48.8,75,48.7v-0.8c0-0.1,0-0.2,0.1-0.2c0.1-0.1,0.1-0.1,0.2-0.1h1v-2.3c0-0.1,0-0.2,0.1-0.2
		s0.1-0.1,0.2-0.1h1c0.1,0,0.1,0,0.2,0.1c0.1,0.1,0.1,0.1,0.1,0.2v2.3h1.5c0.1,0,0.1,0,0.2,0.1c0.1,0.1,0.1,0.1,0.1,0.2v0.8
		c0,0.1,0,0.2-0.1,0.2C79.5,49,79.4,49,79.3,49h-1.5v3c0,0.4,0.1,0.7,0.2,0.9c0.1,0.2,0.3,0.3,0.6,0.3h0.8c0.1,0,0.1,0,0.2,0.1
		c0.1,0.1,0.1,0.1,0.1,0.2v0.9c0,0.1,0,0.2-0.1,0.2c-0.1,0.1-0.1,0.1-0.2,0.1H78.5z"/>
	<path class="st0" d="M86.3,54.9c-0.6,0-1.2-0.1-1.6-0.4s-0.8-0.6-1-1.1c-0.2-0.5-0.4-1-0.4-1.7c0-0.2,0-0.4,0-0.6s0-0.4,0-0.6
		c0-0.6,0.2-1.2,0.4-1.7c0.2-0.5,0.6-0.8,1-1.1s1-0.4,1.6-0.4s1.2,0.1,1.6,0.4c0.4,0.3,0.8,0.6,1,1.1c0.2,0.5,0.4,1,0.4,1.7
		c0,0.2,0,0.4,0,0.6s0,0.4,0,0.6c0,0.6-0.2,1.2-0.4,1.7c-0.2,0.5-0.6,0.8-1,1.1S87,54.9,86.3,54.9z M86.3,53.5c0.4,0,0.8-0.2,1-0.5
		c0.2-0.3,0.4-0.8,0.4-1.4c0-0.1,0-0.3,0-0.5s0-0.4,0-0.5c0-0.6-0.2-1.1-0.4-1.4c-0.2-0.3-0.6-0.5-1-0.5c-0.4,0-0.8,0.2-1,0.5
		C85.1,49.6,85,50,85,50.6c0,0.1,0,0.3,0,0.5s0,0.4,0,0.5c0,0.6,0.2,1.1,0.4,1.4C85.6,53.4,85.9,53.5,86.3,53.5z"/>
	<path class="st0" d="M91.7,54.8c-0.1,0-0.1,0-0.2-0.1c-0.1-0.1-0.1-0.1-0.1-0.2V49h-1c-0.1,0-0.1,0-0.2-0.1
		c-0.1-0.1-0.1-0.1-0.1-0.2v-0.8c0-0.1,0-0.2,0.1-0.2c0.1-0.1,0.1-0.1,0.2-0.1h1V47c0-0.6,0.1-1,0.3-1.4s0.4-0.6,0.8-0.8
		c0.3-0.2,0.8-0.3,1.3-0.3h0.8c0.1,0,0.2,0,0.2,0.1s0.1,0.1,0.1,0.2v0.8c0,0.1,0,0.2-0.1,0.2S94.6,46,94.6,46h-0.8
		c-0.3,0-0.5,0.1-0.7,0.3c-0.1,0.2-0.2,0.5-0.2,0.8v0.5h1.5c0.1,0,0.2,0,0.2,0.1c0.1,0.1,0.1,0.1,0.1,0.2v0.8c0,0.1,0,0.2-0.1,0.2
		C94.6,49,94.5,49,94.4,49h-1.5v5.4c0,0.1,0,0.2-0.1,0.2c-0.1,0.1-0.1,0.1-0.2,0.1H91.7z"/>
	<path class="st0" d="M98.9,54.8c-0.1,0-0.1,0-0.2-0.1c-0.1-0.1-0.1-0.1-0.1-0.2v-9c0-0.1,0-0.2,0.1-0.2c0.1-0.1,0.1-0.1,0.2-0.1
		h1.1c0.1,0,0.1,0,0.2,0.1c0.1,0.1,0.1,0.1,0.1,0.2v7.7h3.8c0.1,0,0.2,0,0.2,0.1c0.1,0.1,0.1,0.1,0.1,0.2v1c0,0.1,0,0.2-0.1,0.2
		c-0.1,0.1-0.1,0.1-0.2,0.1H98.9z"/>
	<path class="st0" d="M105.8,46.4c-0.1,0-0.1,0-0.2-0.1c-0.1-0.1-0.1-0.1-0.1-0.2v-1c0-0.1,0-0.2,0.1-0.2c0.1-0.1,0.1-0.1,0.2-0.1
		h1.1c0.1,0,0.2,0,0.2,0.1s0.1,0.1,0.1,0.2v1c0,0.1,0,0.2-0.1,0.2s-0.1,0.1-0.2,0.1H105.8z M105.8,54.8c-0.1,0-0.1,0-0.2-0.1
		c-0.1-0.1-0.1-0.1-0.1-0.2v-6.5c0-0.1,0-0.2,0.1-0.2c0.1-0.1,0.1-0.1,0.2-0.1h1c0.1,0,0.2,0,0.2,0.1c0.1,0.1,0.1,0.1,0.1,0.2v6.5
		c0,0.1,0,0.2-0.1,0.2c-0.1,0.1-0.1,0.1-0.2,0.1H105.8z"/>
	<path class="st0" d="M109.7,54.8c-0.1,0-0.1,0-0.2-0.1c-0.1-0.1-0.1-0.1-0.1-0.2V49h-1c-0.1,0-0.1,0-0.2-0.1
		c-0.1-0.1-0.1-0.1-0.1-0.2v-0.8c0-0.1,0-0.2,0.1-0.2c0.1-0.1,0.1-0.1,0.2-0.1h1V47c0-0.6,0.1-1,0.3-1.4s0.4-0.6,0.8-0.8
		c0.3-0.2,0.8-0.3,1.3-0.3h0.8c0.1,0,0.2,0,0.2,0.1s0.1,0.1,0.1,0.2v0.8c0,0.1,0,0.2-0.1,0.2s-0.1,0.1-0.2,0.1h-0.8
		c-0.3,0-0.5,0.1-0.7,0.3c-0.1,0.2-0.2,0.5-0.2,0.8v0.5h1.5c0.1,0,0.2,0,0.2,0.1c0.1,0.1,0.1,0.1,0.1,0.2v0.8c0,0.1,0,0.2-0.1,0.2
		c-0.1,0.1-0.1,0.1-0.2,0.1H111v5.4c0,0.1,0,0.2-0.1,0.2c-0.1,0.1-0.1,0.1-0.2,0.1H109.7z"/>
	<path class="st0" d="M116.4,54.9c-0.9,0-1.6-0.3-2.1-0.9c-0.5-0.6-0.8-1.4-0.8-2.5c0-0.1,0-0.2,0-0.4s0-0.3,0-0.3
		c0-0.7,0.2-1.3,0.4-1.8c0.2-0.5,0.6-0.9,1-1.2c0.4-0.3,0.9-0.4,1.5-0.4c0.7,0,1.2,0.2,1.6,0.5s0.8,0.7,1,1.3
		c0.2,0.6,0.3,1.2,0.3,1.9v0.3c0,0.1,0,0.2-0.1,0.2c-0.1,0.1-0.1,0.1-0.2,0.1h-4c0,0.1,0,0.1,0,0.1c0,0.3,0.1,0.6,0.2,0.9
		c0.1,0.3,0.2,0.5,0.4,0.7c0.2,0.2,0.4,0.2,0.7,0.2c0.2,0,0.4,0,0.6-0.1c0.2-0.1,0.3-0.2,0.4-0.3s0.2-0.2,0.2-0.2
		c0.1-0.1,0.1-0.2,0.2-0.2c0,0,0.1,0,0.2,0h1c0.1,0,0.1,0,0.2,0.1c0.1,0.1,0.1,0.1,0.1,0.2c0,0.1-0.1,0.3-0.2,0.5
		c-0.1,0.2-0.3,0.4-0.5,0.6c-0.2,0.2-0.5,0.4-0.9,0.5C117.3,54.8,116.9,54.9,116.4,54.9z M115.1,50.5h2.7v0c0-0.4-0.1-0.7-0.2-1
		s-0.3-0.5-0.5-0.6c-0.2-0.2-0.4-0.2-0.7-0.2c-0.3,0-0.5,0.1-0.7,0.2c-0.2,0.2-0.4,0.4-0.5,0.6S115.1,50.1,115.1,50.5L115.1,50.5z"
		/>
	<path class="st0" d="M126.5,54.9c-0.7,0-1.4-0.1-1.9-0.4c-0.5-0.3-0.9-0.6-1.1-1c-0.3-0.4-0.4-0.8-0.4-1.3c0-0.1,0-0.2,0.1-0.2
		s0.1-0.1,0.2-0.1h1.1c0.1,0,0.2,0,0.2,0.1s0.1,0.1,0.1,0.2c0,0.2,0.1,0.3,0.3,0.5c0.1,0.2,0.3,0.3,0.6,0.4c0.2,0.1,0.5,0.2,0.9,0.2
		c0.6,0,1-0.1,1.3-0.3c0.3-0.2,0.4-0.5,0.4-0.9c0-0.3-0.1-0.5-0.2-0.6s-0.4-0.3-0.7-0.4c-0.3-0.1-0.7-0.3-1.3-0.4
		c-0.6-0.2-1.1-0.4-1.5-0.6c-0.4-0.2-0.7-0.5-0.9-0.9c-0.2-0.4-0.3-0.8-0.3-1.4c0-0.5,0.1-1,0.4-1.4s0.6-0.7,1.1-1s1-0.4,1.7-0.4
		c0.5,0,1,0.1,1.4,0.2c0.4,0.2,0.7,0.4,1,0.6c0.3,0.3,0.5,0.5,0.6,0.8c0.1,0.3,0.2,0.6,0.2,0.9c0,0.1,0,0.1-0.1,0.2
		c0,0.1-0.1,0.1-0.2,0.1h-1.1c-0.1,0-0.1,0-0.2-0.1s-0.1-0.1-0.2-0.2c0-0.3-0.2-0.5-0.5-0.7c-0.3-0.2-0.6-0.3-1-0.3
		c-0.4,0-0.8,0.1-1,0.3c-0.3,0.2-0.4,0.5-0.4,0.9c0,0.3,0.1,0.5,0.2,0.6c0.1,0.2,0.3,0.3,0.6,0.5s0.7,0.3,1.2,0.4
		c0.7,0.2,1.2,0.4,1.7,0.6c0.4,0.2,0.8,0.5,1,0.9c0.2,0.4,0.3,0.8,0.3,1.4c0,0.6-0.1,1.1-0.4,1.6c-0.3,0.4-0.7,0.8-1.2,1
		S127.2,54.9,126.5,54.9z"/>
	<path class="st0" d="M134,54.9c-0.6,0-1.1-0.1-1.5-0.4c-0.4-0.2-0.8-0.6-1-1.1c-0.2-0.5-0.4-1.1-0.4-1.7c0-0.1,0-0.3,0-0.5
		s0-0.4,0-0.6c0-0.7,0.2-1.3,0.4-1.7c0.2-0.5,0.6-0.8,1-1.1c0.4-0.2,0.9-0.4,1.5-0.4c0.5,0,1,0.1,1.3,0.2c0.4,0.2,0.7,0.4,0.9,0.6
		c0.2,0.3,0.4,0.5,0.5,0.8c0.1,0.3,0.2,0.5,0.2,0.7c0,0.1,0,0.2-0.1,0.2c-0.1,0.1-0.1,0.1-0.2,0.1h-1.1c-0.1,0-0.1,0-0.2-0.1
		c0,0-0.1-0.1-0.1-0.2c-0.1-0.4-0.3-0.6-0.5-0.8c-0.2-0.2-0.4-0.2-0.8-0.2c-0.4,0-0.7,0.1-1,0.4s-0.4,0.8-0.4,1.4c0,0.4,0,0.7,0,1
		c0,0.6,0.1,1.1,0.4,1.4c0.2,0.3,0.6,0.4,1,0.4c0.3,0,0.6-0.1,0.8-0.2c0.2-0.2,0.4-0.4,0.5-0.8c0-0.1,0.1-0.2,0.1-0.2
		c0,0,0.1-0.1,0.2-0.1h1.1c0.1,0,0.2,0,0.2,0.1c0.1,0.1,0.1,0.1,0.1,0.2c0,0.2,0,0.4-0.1,0.6c-0.1,0.2-0.2,0.4-0.3,0.6
		c-0.1,0.2-0.3,0.4-0.6,0.6s-0.5,0.3-0.8,0.4C134.8,54.9,134.4,54.9,134,54.9z"/>
	<path class="st0" d="M138.4,46.4c-0.1,0-0.1,0-0.2-0.1c-0.1-0.1-0.1-0.1-0.1-0.2v-1c0-0.1,0-0.2,0.1-0.2c0.1-0.1,0.1-0.1,0.2-0.1
		h1.1c0.1,0,0.2,0,0.2,0.1s0.1,0.1,0.1,0.2v1c0,0.1,0,0.2-0.1,0.2s-0.1,0.1-0.2,0.1H138.4z M138.5,54.8c-0.1,0-0.1,0-0.2-0.1
		c-0.1-0.1-0.1-0.1-0.1-0.2v-6.5c0-0.1,0-0.2,0.1-0.2c0.1-0.1,0.1-0.1,0.2-0.1h1c0.1,0,0.2,0,0.2,0.1c0.1,0.1,0.1,0.1,0.1,0.2v6.5
		c0,0.1,0,0.2-0.1,0.2c-0.1,0.1-0.1,0.1-0.2,0.1H138.5z"/>
	<path class="st0" d="M144,54.9c-0.9,0-1.6-0.3-2.1-0.9c-0.5-0.6-0.8-1.4-0.8-2.5c0-0.1,0-0.2,0-0.4s0-0.3,0-0.3
		c0-0.7,0.2-1.3,0.4-1.8c0.2-0.5,0.6-0.9,1-1.2c0.4-0.3,0.9-0.4,1.5-0.4c0.7,0,1.2,0.2,1.6,0.5s0.8,0.7,1,1.3
		c0.2,0.6,0.3,1.2,0.3,1.9v0.3c0,0.1,0,0.2-0.1,0.2c-0.1,0.1-0.1,0.1-0.2,0.1h-4c0,0.1,0,0.1,0,0.1c0,0.3,0.1,0.6,0.2,0.9
		c0.1,0.3,0.2,0.5,0.4,0.7c0.2,0.2,0.4,0.2,0.7,0.2c0.2,0,0.4,0,0.6-0.1c0.2-0.1,0.3-0.2,0.4-0.3s0.2-0.2,0.2-0.2
		c0.1-0.1,0.1-0.2,0.2-0.2c0,0,0.1,0,0.2,0h1c0.1,0,0.1,0,0.2,0.1c0.1,0.1,0.1,0.1,0.1,0.2c0,0.1-0.1,0.3-0.2,0.5
		c-0.1,0.2-0.3,0.4-0.5,0.6c-0.2,0.2-0.5,0.4-0.9,0.5C144.9,54.8,144.5,54.9,144,54.9z M142.7,50.5h2.7v0c0-0.4-0.1-0.7-0.2-1
		s-0.3-0.5-0.5-0.6c-0.2-0.2-0.4-0.2-0.7-0.2c-0.3,0-0.5,0.1-0.7,0.2c-0.2,0.2-0.4,0.4-0.5,0.6S142.7,50.1,142.7,50.5L142.7,50.5z"
		/>
	<path class="st0" d="M148.6,54.8c-0.1,0-0.1,0-0.2-0.1c-0.1-0.1-0.1-0.1-0.1-0.2v-6.5c0-0.1,0-0.2,0.1-0.2c0.1-0.1,0.1-0.1,0.2-0.1
		h1c0.1,0,0.1,0,0.2,0.1c0.1,0.1,0.1,0.1,0.1,0.2v0.6c0.2-0.3,0.5-0.5,0.8-0.7c0.3-0.2,0.7-0.3,1.2-0.3c0.5,0,0.9,0.1,1.3,0.4
		c0.4,0.3,0.6,0.6,0.8,1.1c0.2,0.5,0.3,1,0.3,1.7v3.9c0,0.1,0,0.2-0.1,0.2c-0.1,0.1-0.1,0.1-0.2,0.1h-1.1c-0.1,0-0.1,0-0.2-0.1
		c-0.1-0.1-0.1-0.1-0.1-0.2v-3.8c0-0.5-0.1-1-0.3-1.3c-0.2-0.3-0.6-0.5-1-0.5c-0.4,0-0.8,0.2-1,0.5s-0.4,0.7-0.4,1.3v3.8
		c0,0.1,0,0.2-0.1,0.2c-0.1,0.1-0.1,0.1-0.2,0.1H148.6z"/>
	<path class="st0" d="M158.5,54.9c-0.6,0-1.1-0.1-1.5-0.4c-0.4-0.2-0.8-0.6-1-1.1c-0.2-0.5-0.4-1.1-0.4-1.7c0-0.1,0-0.3,0-0.5
		s0-0.4,0-0.6c0-0.7,0.2-1.3,0.4-1.7c0.2-0.5,0.6-0.8,1-1.1c0.4-0.2,0.9-0.4,1.5-0.4c0.5,0,1,0.1,1.3,0.2c0.4,0.2,0.7,0.4,0.9,0.6
		c0.2,0.3,0.4,0.5,0.5,0.8c0.1,0.3,0.2,0.5,0.2,0.7c0,0.1,0,0.2-0.1,0.2c-0.1,0.1-0.1,0.1-0.2,0.1h-1.1c-0.1,0-0.1,0-0.2-0.1
		c0,0-0.1-0.1-0.1-0.2c-0.1-0.4-0.3-0.6-0.5-0.8c-0.2-0.2-0.4-0.2-0.8-0.2c-0.4,0-0.7,0.1-1,0.4s-0.4,0.8-0.4,1.4c0,0.4,0,0.7,0,1
		c0,0.6,0.1,1.1,0.4,1.4c0.2,0.3,0.6,0.4,1,0.4c0.3,0,0.6-0.1,0.8-0.2c0.2-0.2,0.4-0.4,0.5-0.8c0-0.1,0.1-0.2,0.1-0.2
		c0,0,0.1-0.1,0.2-0.1h1.1c0.1,0,0.2,0,0.2,0.1c0.1,0.1,0.1,0.1,0.1,0.2c0,0.2,0,0.4-0.1,0.6c-0.1,0.2-0.2,0.4-0.3,0.6
		c-0.1,0.2-0.3,0.4-0.6,0.6s-0.5,0.3-0.8,0.4C159.3,54.9,158.9,54.9,158.5,54.9z"/>
	<path class="st0" d="M165.4,54.9c-0.9,0-1.6-0.3-2.1-0.9c-0.5-0.6-0.8-1.4-0.8-2.5c0-0.1,0-0.2,0-0.4s0-0.3,0-0.3
		c0-0.7,0.2-1.3,0.4-1.8c0.2-0.5,0.6-0.9,1-1.2c0.4-0.3,0.9-0.4,1.5-0.4c0.7,0,1.2,0.2,1.6,0.5s0.8,0.7,1,1.3
		c0.2,0.6,0.3,1.2,0.3,1.9v0.3c0,0.1,0,0.2-0.1,0.2c-0.1,0.1-0.1,0.1-0.2,0.1h-4c0,0.1,0,0.1,0,0.1c0,0.3,0.1,0.6,0.2,0.9
		c0.1,0.3,0.2,0.5,0.4,0.7c0.2,0.2,0.4,0.2,0.7,0.2c0.2,0,0.4,0,0.6-0.1c0.2-0.1,0.3-0.2,0.4-0.3s0.2-0.2,0.2-0.2
		c0.1-0.1,0.1-0.2,0.2-0.2c0,0,0.1,0,0.2,0h1c0.1,0,0.1,0,0.2,0.1c0.1,0.1,0.1,0.1,0.1,0.2c0,0.1-0.1,0.3-0.2,0.5
		c-0.1,0.2-0.3,0.4-0.5,0.6c-0.2,0.2-0.5,0.4-0.9,0.5C166.3,54.8,165.9,54.9,165.4,54.9z M164.1,50.5h2.7v0c0-0.4-0.1-0.7-0.2-1
		s-0.3-0.5-0.5-0.6c-0.2-0.2-0.4-0.2-0.7-0.2c-0.3,0-0.5,0.1-0.7,0.2c-0.2,0.2-0.4,0.4-0.5,0.6S164.1,50.1,164.1,50.5L164.1,50.5z"
		/>
	<path class="st0" d="M169.6,55.8c-0.1,0-0.1,0-0.2-0.1c0-0.1-0.1-0.1,0-0.2l0.3-2.4c0-0.1,0.1-0.2,0.1-0.3s0.2-0.1,0.3-0.1h1.1
		c0.1,0,0.1,0,0.2,0.1c0,0.1,0.1,0.1,0.1,0.2c0,0.1,0,0.1,0,0.2l-0.8,2.3c0,0.1-0.1,0.2-0.1,0.2s-0.1,0.1-0.3,0.1H169.6z"/>
	<path class="st0" d="M176,54.8c-0.1,0-0.1,0-0.2-0.1c-0.1-0.1-0.1-0.1-0.1-0.2v-9c0-0.1,0-0.2,0.1-0.2c0.1-0.1,0.1-0.1,0.2-0.1h0.9
		c0.1,0,0.2,0,0.2,0.1c0.1,0.1,0.1,0.1,0.1,0.1l3.5,6.2v-6.1c0-0.1,0-0.2,0.1-0.2c0.1-0.1,0.1-0.1,0.2-0.1h1c0.1,0,0.2,0,0.2,0.1
		c0.1,0.1,0.1,0.1,0.1,0.2v9c0,0.1,0,0.2-0.1,0.2c-0.1,0.1-0.1,0.1-0.2,0.1h-0.9c-0.1,0-0.2,0-0.2-0.1c0-0.1-0.1-0.1-0.1-0.1
		l-3.5-6.1v6c0,0.1,0,0.2-0.1,0.2c-0.1,0.1-0.1,0.1-0.2,0.1H176z"/>
	<path class="st0" d="M185.9,54.9c-0.4,0-0.8-0.1-1.1-0.3s-0.6-0.4-0.8-0.8c-0.2-0.3-0.3-0.7-0.3-1.1c0-0.6,0.2-1.2,0.7-1.5
		c0.5-0.4,1.1-0.6,1.8-0.8l1.7-0.3v-0.3c0-0.4-0.1-0.7-0.3-0.9s-0.5-0.3-0.9-0.3c-0.3,0-0.5,0.1-0.7,0.2c-0.2,0.1-0.3,0.3-0.4,0.5
		c-0.1,0.1-0.2,0.2-0.3,0.2h-1c-0.1,0-0.2,0-0.2-0.1c0-0.1-0.1-0.1-0.1-0.2c0-0.1,0.1-0.3,0.2-0.5s0.3-0.4,0.5-0.6
		c0.2-0.2,0.5-0.4,0.8-0.5s0.7-0.2,1.2-0.2c0.5,0,0.9,0.1,1.3,0.2s0.6,0.3,0.8,0.6c0.2,0.2,0.4,0.5,0.5,0.8c0.1,0.3,0.1,0.7,0.1,1
		v4.4c0,0.1,0,0.2-0.1,0.2c-0.1,0.1-0.1,0.1-0.2,0.1h-1c-0.1,0-0.2,0-0.2-0.1c-0.1-0.1-0.1-0.1-0.1-0.2v-0.5
		c-0.1,0.2-0.2,0.3-0.4,0.5s-0.4,0.3-0.6,0.4C186.5,54.9,186.2,54.9,185.9,54.9z M186.3,53.6c0.3,0,0.5-0.1,0.8-0.2
		c0.2-0.1,0.4-0.4,0.5-0.6c0.1-0.3,0.2-0.7,0.2-1.1v-0.3l-1.2,0.2c-0.5,0.1-0.8,0.2-1.1,0.4c-0.2,0.2-0.4,0.4-0.4,0.7
		c0,0.2,0.1,0.4,0.2,0.5s0.2,0.2,0.4,0.3S186.1,53.6,186.3,53.6z"/>
	<path class="st0" d="M193.8,54.8c-0.5,0-0.9-0.1-1.2-0.3c-0.3-0.2-0.6-0.5-0.7-0.9s-0.2-0.9-0.2-1.4V49h-1c-0.1,0-0.1,0-0.2-0.1
		c-0.1-0.1-0.1-0.1-0.1-0.2v-0.8c0-0.1,0-0.2,0.1-0.2c0.1-0.1,0.1-0.1,0.2-0.1h1v-2.3c0-0.1,0-0.2,0.1-0.2c0.1-0.1,0.1-0.1,0.2-0.1
		h1c0.1,0,0.1,0,0.2,0.1c0.1,0.1,0.1,0.1,0.1,0.2v2.3h1.5c0.1,0,0.1,0,0.2,0.1c0.1,0.1,0.1,0.1,0.1,0.2v0.8c0,0.1,0,0.2-0.1,0.2
		c-0.1,0.1-0.1,0.1-0.2,0.1h-1.5v3c0,0.4,0.1,0.7,0.2,0.9c0.1,0.2,0.3,0.3,0.6,0.3h0.8c0.1,0,0.1,0,0.2,0.1c0.1,0.1,0.1,0.1,0.1,0.2
		v0.9c0,0.1,0,0.2-0.1,0.2c-0.1,0.1-0.1,0.1-0.2,0.1H193.8z"/>
	<path class="st0" d="M196.4,46.4c-0.1,0-0.1,0-0.2-0.1c-0.1-0.1-0.1-0.1-0.1-0.2v-1c0-0.1,0-0.2,0.1-0.2c0.1-0.1,0.1-0.1,0.2-0.1
		h1.1c0.1,0,0.2,0,0.2,0.1s0.1,0.1,0.1,0.2v1c0,0.1,0,0.2-0.1,0.2s-0.1,0.1-0.2,0.1H196.4z M196.4,54.8c-0.1,0-0.1,0-0.2-0.1
		c-0.1-0.1-0.1-0.1-0.1-0.2v-6.5c0-0.1,0-0.2,0.1-0.2c0.1-0.1,0.1-0.1,0.2-0.1h1c0.1,0,0.2,0,0.2,0.1c0.1,0.1,0.1,0.1,0.1,0.2v6.5
		c0,0.1,0,0.2-0.1,0.2c-0.1,0.1-0.1,0.1-0.2,0.1H196.4z"/>
	<path class="st0" d="M202.1,54.9c-0.6,0-1.2-0.1-1.6-0.4s-0.8-0.6-1-1.1s-0.4-1-0.4-1.7c0-0.2,0-0.4,0-0.6s0-0.4,0-0.6
		c0-0.6,0.2-1.2,0.4-1.7c0.2-0.5,0.6-0.8,1-1.1s1-0.4,1.6-0.4c0.6,0,1.2,0.1,1.6,0.4s0.8,0.6,1,1.1c0.2,0.5,0.4,1,0.4,1.7
		c0,0.2,0,0.4,0,0.6s0,0.4,0,0.6c0,0.6-0.2,1.2-0.4,1.7s-0.6,0.8-1,1.1C203.2,54.8,202.7,54.9,202.1,54.9z M202.1,53.5
		c0.4,0,0.8-0.2,1-0.5c0.2-0.3,0.4-0.8,0.4-1.4c0-0.1,0-0.3,0-0.5s0-0.4,0-0.5c0-0.6-0.2-1.1-0.4-1.4c-0.2-0.3-0.6-0.5-1-0.5
		c-0.4,0-0.8,0.2-1,0.5c-0.2,0.3-0.4,0.8-0.4,1.4c0,0.1,0,0.3,0,0.5s0,0.4,0,0.5c0,0.6,0.2,1.1,0.4,1.4
		C201.3,53.4,201.6,53.5,202.1,53.5z"/>
	<path class="st0" d="M206.7,54.8c-0.1,0-0.1,0-0.2-0.1c-0.1-0.1-0.1-0.1-0.1-0.2v-6.5c0-0.1,0-0.2,0.1-0.2c0.1-0.1,0.1-0.1,0.2-0.1
		h1c0.1,0,0.1,0,0.2,0.1c0.1,0.1,0.1,0.1,0.1,0.2v0.6c0.2-0.3,0.5-0.5,0.8-0.7c0.3-0.2,0.7-0.3,1.2-0.3c0.5,0,0.9,0.1,1.3,0.4
		c0.4,0.3,0.6,0.6,0.8,1.1s0.3,1,0.3,1.7v3.9c0,0.1,0,0.2-0.1,0.2c-0.1,0.1-0.1,0.1-0.2,0.1h-1.1c-0.1,0-0.1,0-0.2-0.1
		c-0.1-0.1-0.1-0.1-0.1-0.2v-3.8c0-0.5-0.1-1-0.3-1.3s-0.6-0.5-1-0.5c-0.4,0-0.8,0.2-1,0.5c-0.2,0.3-0.4,0.7-0.4,1.3v3.8
		c0,0.1,0,0.2-0.1,0.2c-0.1,0.1-0.1,0.1-0.2,0.1H206.7z"/>
	<path class="st0" d="M215.8,54.9c-0.4,0-0.8-0.1-1.1-0.3s-0.6-0.4-0.8-0.8c-0.2-0.3-0.3-0.7-0.3-1.1c0-0.6,0.2-1.2,0.7-1.5
		c0.5-0.4,1.1-0.6,1.8-0.8l1.7-0.3v-0.3c0-0.4-0.1-0.7-0.3-0.9s-0.5-0.3-0.9-0.3c-0.3,0-0.5,0.1-0.7,0.2c-0.2,0.1-0.3,0.3-0.4,0.5
		c-0.1,0.1-0.2,0.2-0.3,0.2h-1c-0.1,0-0.2,0-0.2-0.1c0-0.1-0.1-0.1-0.1-0.2c0-0.1,0.1-0.3,0.2-0.5s0.3-0.4,0.5-0.6
		c0.2-0.2,0.5-0.4,0.8-0.5s0.7-0.2,1.2-0.2c0.5,0,0.9,0.1,1.3,0.2s0.6,0.3,0.8,0.6c0.2,0.2,0.4,0.5,0.5,0.8c0.1,0.3,0.1,0.7,0.1,1
		v4.4c0,0.1,0,0.2-0.1,0.2c-0.1,0.1-0.1,0.1-0.2,0.1h-1c-0.1,0-0.2,0-0.2-0.1c-0.1-0.1-0.1-0.1-0.1-0.2v-0.5
		c-0.1,0.2-0.2,0.3-0.4,0.5s-0.4,0.3-0.6,0.4C216.4,54.9,216.1,54.9,215.8,54.9z M216.2,53.6c0.3,0,0.5-0.1,0.8-0.2
		c0.2-0.1,0.4-0.4,0.5-0.6c0.1-0.3,0.2-0.7,0.2-1.1v-0.3l-1.2,0.2c-0.5,0.1-0.8,0.2-1.1,0.4c-0.2,0.2-0.4,0.4-0.4,0.7
		c0,0.2,0.1,0.4,0.2,0.5s0.2,0.2,0.4,0.3S216,53.6,216.2,53.6z"/>
	<path class="st0" d="M221.1,54.8c-0.1,0-0.1,0-0.2-0.1c-0.1-0.1-0.1-0.1-0.1-0.2v-9.2c0-0.1,0-0.2,0.1-0.2c0.1-0.1,0.1-0.1,0.2-0.1
		h1c0.1,0,0.1,0,0.2,0.1c0.1,0.1,0.1,0.1,0.1,0.2v9.2c0,0.1,0,0.2-0.1,0.2c-0.1,0.1-0.1,0.1-0.2,0.1H221.1z"/>
	<path class="st0" d="M229.1,54.8c-0.1,0-0.1,0-0.2-0.1c-0.1-0.1-0.1-0.1-0.1-0.2v-7.7h-2.2c-0.1,0-0.1,0-0.2-0.1
		c-0.1-0.1-0.1-0.1-0.1-0.2v-1c0-0.1,0-0.2,0.1-0.2c0.1-0.1,0.1-0.1,0.2-0.1h6.2c0.1,0,0.2,0,0.2,0.1c0.1,0.1,0.1,0.1,0.1,0.2v1
		c0,0.1,0,0.2-0.1,0.2c-0.1,0.1-0.1,0.1-0.2,0.1h-2.2v7.7c0,0.1,0,0.2-0.1,0.2c-0.1,0.1-0.1,0.1-0.2,0.1H229.1z"/>
	<path class="st0" d="M234.9,54.9c-0.4,0-0.8-0.1-1.1-0.3s-0.6-0.4-0.8-0.8c-0.2-0.3-0.3-0.7-0.3-1.1c0-0.6,0.2-1.2,0.7-1.5
		c0.5-0.4,1.1-0.6,1.8-0.8l1.7-0.3v-0.3c0-0.4-0.1-0.7-0.3-0.9s-0.5-0.3-0.9-0.3c-0.3,0-0.5,0.1-0.7,0.2c-0.2,0.1-0.3,0.3-0.4,0.5
		c-0.1,0.1-0.2,0.2-0.3,0.2h-1c-0.1,0-0.2,0-0.2-0.1c0-0.1-0.1-0.1-0.1-0.2c0-0.1,0.1-0.3,0.2-0.5s0.3-0.4,0.5-0.6
		c0.2-0.2,0.5-0.4,0.8-0.5s0.7-0.2,1.2-0.2c0.5,0,0.9,0.1,1.3,0.2s0.6,0.3,0.8,0.6c0.2,0.2,0.4,0.5,0.5,0.8c0.1,0.3,0.1,0.7,0.1,1
		v4.4c0,0.1,0,0.2-0.1,0.2c-0.1,0.1-0.1,0.1-0.2,0.1h-1c-0.1,0-0.2,0-0.2-0.1c-0.1-0.1-0.1-0.1-0.1-0.2v-0.5
		c-0.1,0.2-0.2,0.3-0.4,0.5s-0.4,0.3-0.6,0.4C235.5,54.9,235.2,54.9,234.9,54.9z M235.3,53.6c0.3,0,0.5-0.1,0.8-0.2
		c0.2-0.1,0.4-0.4,0.5-0.6c0.1-0.3,0.2-0.7,0.2-1.1v-0.3l-1.2,0.2c-0.5,0.1-0.8,0.2-1.1,0.4c-0.2,0.2-0.4,0.4-0.4,0.7
		c0,0.2,0.1,0.4,0.2,0.5s0.2,0.2,0.4,0.3S235.1,53.6,235.3,53.6z"/>
	<path class="st0" d="M240.2,46.4c-0.1,0-0.1,0-0.2-0.1c-0.1-0.1-0.1-0.1-0.1-0.2v-1c0-0.1,0-0.2,0.1-0.2c0.1-0.1,0.1-0.1,0.2-0.1
		h1.1c0.1,0,0.2,0,0.2,0.1s0.1,0.1,0.1,0.2v1c0,0.1,0,0.2-0.1,0.2s-0.1,0.1-0.2,0.1H240.2z M240.2,54.8c-0.1,0-0.1,0-0.2-0.1
		c-0.1-0.1-0.1-0.1-0.1-0.2v-6.5c0-0.1,0-0.2,0.1-0.2c0.1-0.1,0.1-0.1,0.2-0.1h1c0.1,0,0.2,0,0.2,0.1c0.1,0.1,0.1,0.1,0.1,0.2v6.5
		c0,0.1,0,0.2-0.1,0.2c-0.1,0.1-0.1,0.1-0.2,0.1H240.2z"/>
	<path class="st0" d="M244.8,54.8c-0.1,0-0.2,0-0.3-0.1c-0.1-0.1-0.1-0.1-0.1-0.2l-1.7-6.4c0,0,0-0.1,0-0.1c0-0.1,0-0.2,0.1-0.2
		c0.1-0.1,0.1-0.1,0.2-0.1h0.9c0.1,0,0.2,0,0.2,0.1c0.1,0.1,0.1,0.1,0.1,0.2l1.2,4.6l1.3-4.6c0-0.1,0.1-0.1,0.1-0.2s0.1-0.1,0.3-0.1
		h0.6c0.1,0,0.2,0,0.3,0.1c0.1,0.1,0.1,0.1,0.1,0.2l1.3,4.6l1.2-4.6c0-0.1,0-0.1,0.1-0.2c0.1-0.1,0.1-0.1,0.2-0.1h0.9
		c0.1,0,0.1,0,0.2,0.1c0.1,0.1,0.1,0.1,0.1,0.2c0,0,0,0.1,0,0.1l-1.7,6.4c0,0.1-0.1,0.2-0.1,0.2c-0.1,0.1-0.1,0.1-0.3,0.1h-0.8
		c-0.1,0-0.2,0-0.3-0.1c-0.1-0.1-0.1-0.1-0.1-0.2l-1.3-4.4l-1.3,4.4c0,0.1-0.1,0.2-0.1,0.2c-0.1,0.1-0.2,0.1-0.3,0.1H244.8z"/>
	<path class="st0" d="M254.6,54.9c-0.4,0-0.8-0.1-1.1-0.3s-0.6-0.4-0.8-0.8c-0.2-0.3-0.3-0.7-0.3-1.1c0-0.6,0.2-1.2,0.7-1.5
		c0.5-0.4,1.1-0.6,1.8-0.8l1.7-0.3v-0.3c0-0.4-0.1-0.7-0.3-0.9s-0.5-0.3-0.9-0.3c-0.3,0-0.5,0.1-0.7,0.2c-0.2,0.1-0.3,0.3-0.4,0.5
		c-0.1,0.1-0.2,0.2-0.3,0.2h-1c-0.1,0-0.2,0-0.2-0.1c0-0.1-0.1-0.1-0.1-0.2c0-0.1,0.1-0.3,0.2-0.5s0.3-0.4,0.5-0.6
		c0.2-0.2,0.5-0.4,0.8-0.5s0.7-0.2,1.2-0.2c0.5,0,0.9,0.1,1.3,0.2s0.6,0.3,0.8,0.6c0.2,0.2,0.4,0.5,0.5,0.8c0.1,0.3,0.1,0.7,0.1,1
		v4.4c0,0.1,0,0.2-0.1,0.2c-0.1,0.1-0.1,0.1-0.2,0.1h-1c-0.1,0-0.2,0-0.2-0.1c-0.1-0.1-0.1-0.1-0.1-0.2v-0.5
		c-0.1,0.2-0.2,0.3-0.4,0.5s-0.4,0.3-0.6,0.4C255.2,54.9,254.9,54.9,254.6,54.9z M255,53.6c0.3,0,0.5-0.1,0.8-0.2
		c0.2-0.1,0.4-0.4,0.5-0.6c0.1-0.3,0.2-0.7,0.2-1.1v-0.3l-1.2,0.2c-0.5,0.1-0.8,0.2-1.1,0.4c-0.2,0.2-0.4,0.4-0.4,0.7
		c0,0.2,0.1,0.4,0.2,0.5s0.2,0.2,0.4,0.3S254.8,53.6,255,53.6z"/>
	<path class="st0" d="M259.9,54.8c-0.1,0-0.1,0-0.2-0.1c-0.1-0.1-0.1-0.1-0.1-0.2v-6.5c0-0.1,0-0.2,0.1-0.2c0.1-0.1,0.1-0.1,0.2-0.1
		h1c0.1,0,0.1,0,0.2,0.1c0.1,0.1,0.1,0.1,0.1,0.2v0.6c0.2-0.3,0.5-0.5,0.8-0.7c0.3-0.2,0.7-0.3,1.2-0.3c0.5,0,0.9,0.1,1.3,0.4
		c0.4,0.3,0.6,0.6,0.8,1.1s0.3,1,0.3,1.7v3.9c0,0.1,0,0.2-0.1,0.2c-0.1,0.1-0.1,0.1-0.2,0.1h-1.1c-0.1,0-0.1,0-0.2-0.1
		c-0.1-0.1-0.1-0.1-0.1-0.2v-3.8c0-0.5-0.1-1-0.3-1.3s-0.6-0.5-1-0.5c-0.4,0-0.8,0.2-1,0.5c-0.2,0.3-0.4,0.7-0.4,1.3v3.8
		c0,0.1,0,0.2-0.1,0.2c-0.1,0.1-0.1,0.1-0.2,0.1H259.9z"/>
	<path class="st0" d="M273.5,54.9c-0.7,0-1.3-0.1-1.8-0.4s-0.9-0.7-1.2-1.3c-0.3-0.6-0.4-1.3-0.4-2.2v-5.6c0-0.1,0-0.2,0.1-0.2
		c0.1-0.1,0.1-0.1,0.2-0.1h1.1c0.1,0,0.2,0,0.2,0.1c0.1,0.1,0.1,0.1,0.1,0.2v5.6c0,0.8,0.2,1.3,0.5,1.7c0.3,0.4,0.7,0.5,1.3,0.5
		c0.5,0,1-0.2,1.3-0.5s0.5-0.9,0.5-1.7v-5.6c0-0.1,0-0.2,0.1-0.2c0.1-0.1,0.1-0.1,0.2-0.1h1.1c0.1,0,0.2,0,0.2,0.1
		c0.1,0.1,0.1,0.1,0.1,0.2v5.6c0,0.9-0.1,1.6-0.4,2.2c-0.3,0.6-0.7,1-1.2,1.3S274.2,54.9,273.5,54.9z"/>
	<path class="st0" d="M278.8,54.8c-0.1,0-0.1,0-0.2-0.1c-0.1-0.1-0.1-0.1-0.1-0.2v-6.5c0-0.1,0-0.2,0.1-0.2c0.1-0.1,0.1-0.1,0.2-0.1
		h1c0.1,0,0.1,0,0.2,0.1c0.1,0.1,0.1,0.1,0.1,0.2v0.6c0.2-0.3,0.5-0.5,0.8-0.7c0.3-0.2,0.7-0.3,1.2-0.3c0.5,0,0.9,0.1,1.3,0.4
		c0.4,0.3,0.6,0.6,0.8,1.1s0.3,1,0.3,1.7v3.9c0,0.1,0,0.2-0.1,0.2c-0.1,0.1-0.1,0.1-0.2,0.1h-1.1c-0.1,0-0.1,0-0.2-0.1
		c-0.1-0.1-0.1-0.1-0.1-0.2v-3.8c0-0.5-0.1-1-0.3-1.3s-0.6-0.5-1-0.5c-0.4,0-0.8,0.2-1,0.5c-0.2,0.3-0.4,0.7-0.4,1.3v3.8
		c0,0.1,0,0.2-0.1,0.2c-0.1,0.1-0.1,0.1-0.2,0.1H278.8z"/>
	<path class="st0" d="M286.2,46.4c-0.1,0-0.1,0-0.2-0.1c-0.1-0.1-0.1-0.1-0.1-0.2v-1c0-0.1,0-0.2,0.1-0.2c0.1-0.1,0.1-0.1,0.2-0.1
		h1.1c0.1,0,0.2,0,0.2,0.1s0.1,0.1,0.1,0.2v1c0,0.1,0,0.2-0.1,0.2s-0.1,0.1-0.2,0.1H286.2z M286.3,54.8c-0.1,0-0.1,0-0.2-0.1
		c-0.1-0.1-0.1-0.1-0.1-0.2v-6.5c0-0.1,0-0.2,0.1-0.2c0.1-0.1,0.1-0.1,0.2-0.1h1c0.1,0,0.2,0,0.2,0.1c0.1,0.1,0.1,0.1,0.1,0.2v6.5
		c0,0.1,0,0.2-0.1,0.2c-0.1,0.1-0.1,0.1-0.2,0.1H286.3z"/>
	<path class="st0" d="M291.4,54.8c-0.1,0-0.2,0-0.3-0.1s-0.1-0.1-0.2-0.2l-2.3-6.4c0,0,0-0.1,0-0.1c0-0.1,0-0.2,0.1-0.2
		c0.1-0.1,0.1-0.1,0.2-0.1h1c0.1,0,0.2,0,0.2,0.1c0,0.1,0.1,0.1,0.1,0.2l1.6,4.9l1.6-4.9c0-0.1,0-0.1,0.1-0.2c0-0.1,0.1-0.1,0.2-0.1
		h1c0.1,0,0.1,0,0.2,0.1c0.1,0.1,0.1,0.1,0.1,0.2c0,0,0,0.1,0,0.1l-2.3,6.4c0,0.1-0.1,0.2-0.1,0.2s-0.2,0.1-0.3,0.1H291.4z"/>
	<path class="st0" d="M298.6,54.9c-0.9,0-1.6-0.3-2.1-0.9c-0.5-0.6-0.8-1.4-0.8-2.5c0-0.1,0-0.2,0-0.4s0-0.3,0-0.3
		c0-0.7,0.2-1.3,0.4-1.8c0.2-0.5,0.6-0.9,1-1.2c0.4-0.3,0.9-0.4,1.5-0.4c0.7,0,1.2,0.2,1.6,0.5s0.8,0.7,1,1.3
		c0.2,0.6,0.3,1.2,0.3,1.9v0.3c0,0.1,0,0.2-0.1,0.2c-0.1,0.1-0.1,0.1-0.2,0.1h-4c0,0.1,0,0.1,0,0.1c0,0.3,0.1,0.6,0.2,0.9
		c0.1,0.3,0.2,0.5,0.4,0.7c0.2,0.2,0.4,0.2,0.7,0.2c0.2,0,0.4,0,0.6-0.1c0.2-0.1,0.3-0.2,0.4-0.3s0.2-0.2,0.2-0.2
		c0.1-0.1,0.1-0.2,0.2-0.2c0,0,0.1,0,0.2,0h1c0.1,0,0.1,0,0.2,0.1c0.1,0.1,0.1,0.1,0.1,0.2c0,0.1-0.1,0.3-0.2,0.5
		c-0.1,0.2-0.3,0.4-0.5,0.6c-0.2,0.2-0.5,0.4-0.9,0.5S299,54.9,298.6,54.9z M297.3,50.5h2.7v0c0-0.4-0.1-0.7-0.2-1
		c-0.1-0.3-0.3-0.5-0.5-0.6c-0.2-0.2-0.4-0.2-0.7-0.2c-0.3,0-0.5,0.1-0.7,0.2c-0.2,0.2-0.4,0.4-0.5,0.6S297.3,50.1,297.3,50.5
		L297.3,50.5z"/>
	<path class="st0" d="M303.1,54.8c-0.1,0-0.1,0-0.2-0.1c-0.1-0.1-0.1-0.1-0.1-0.2v-6.5c0-0.1,0-0.2,0.1-0.2c0.1-0.1,0.1-0.1,0.2-0.1
		h1c0.1,0,0.2,0,0.2,0.1c0.1,0.1,0.1,0.1,0.1,0.2v0.6c0.2-0.3,0.4-0.5,0.7-0.7c0.3-0.2,0.6-0.2,1-0.2h0.5c0.1,0,0.2,0,0.2,0.1
		c0.1,0.1,0.1,0.1,0.1,0.2v1c0,0.1,0,0.2-0.1,0.2c-0.1,0.1-0.1,0.1-0.2,0.1h-0.9c-0.4,0-0.7,0.1-0.9,0.4c-0.2,0.2-0.3,0.6-0.3,1v3.8
		c0,0.1,0,0.2-0.1,0.2c-0.1,0.1-0.1,0.1-0.2,0.1H303.1z"/>
	<path class="st0" d="M310.4,54.9c-0.5,0-0.9-0.1-1.2-0.2c-0.3-0.1-0.6-0.3-0.8-0.5c-0.2-0.2-0.4-0.4-0.5-0.6s-0.2-0.4-0.2-0.5
		c0-0.1,0-0.2,0.1-0.2c0.1-0.1,0.1-0.1,0.2-0.1h1c0,0,0.1,0,0.1,0c0,0,0.1,0,0.1,0.1c0.1,0.1,0.2,0.2,0.3,0.3
		c0.1,0.1,0.3,0.2,0.4,0.3c0.2,0.1,0.4,0.1,0.6,0.1c0.3,0,0.6-0.1,0.8-0.2c0.2-0.1,0.3-0.3,0.3-0.6c0-0.2,0-0.4-0.1-0.5
		c-0.1-0.1-0.3-0.2-0.5-0.3c-0.2-0.1-0.6-0.2-1.1-0.3c-0.5-0.1-0.8-0.3-1.1-0.5c-0.3-0.2-0.5-0.4-0.7-0.7s-0.2-0.6-0.2-1
		c0-0.4,0.1-0.7,0.3-1c0.2-0.3,0.5-0.6,0.8-0.8s0.8-0.3,1.4-0.3c0.4,0,0.8,0.1,1.1,0.2s0.6,0.3,0.8,0.5c0.2,0.2,0.4,0.4,0.5,0.6
		s0.2,0.4,0.2,0.5c0,0.1,0,0.2-0.1,0.2c-0.1,0.1-0.1,0.1-0.2,0.1h-0.9c0,0-0.1,0-0.1,0s-0.1,0-0.1-0.1c-0.1-0.1-0.2-0.2-0.3-0.3
		s-0.2-0.2-0.4-0.3c-0.1-0.1-0.3-0.1-0.6-0.1c-0.3,0-0.5,0.1-0.7,0.2c-0.2,0.2-0.2,0.3-0.2,0.6c0,0.2,0,0.3,0.1,0.4
		c0.1,0.1,0.2,0.2,0.5,0.3s0.6,0.2,1.1,0.3c0.5,0.1,1,0.3,1.3,0.5c0.3,0.2,0.5,0.5,0.7,0.7c0.1,0.3,0.2,0.6,0.2,0.9
		c0,0.4-0.1,0.8-0.3,1.1s-0.5,0.6-0.9,0.8S311,54.9,310.4,54.9z"/>
	<path class="st0" d="M314.7,46.4c-0.1,0-0.1,0-0.2-0.1c-0.1-0.1-0.1-0.1-0.1-0.2v-1c0-0.1,0-0.2,0.1-0.2c0.1-0.1,0.1-0.1,0.2-0.1
		h1.1c0.1,0,0.2,0,0.2,0.1s0.1,0.1,0.1,0.2v1c0,0.1,0,0.2-0.1,0.2s-0.1,0.1-0.2,0.1H314.7z M314.7,54.8c-0.1,0-0.1,0-0.2-0.1
		c-0.1-0.1-0.1-0.1-0.1-0.2v-6.5c0-0.1,0-0.2,0.1-0.2c0.1-0.1,0.1-0.1,0.2-0.1h1c0.1,0,0.2,0,0.2,0.1c0.1,0.1,0.1,0.1,0.1,0.2v6.5
		c0,0.1,0,0.2-0.1,0.2c-0.1,0.1-0.1,0.1-0.2,0.1H314.7z"/>
	<path class="st0" d="M320.5,54.8c-0.5,0-0.9-0.1-1.2-0.3c-0.3-0.2-0.6-0.5-0.7-0.9s-0.2-0.9-0.2-1.4V49h-1c-0.1,0-0.1,0-0.2-0.1
		c-0.1-0.1-0.1-0.1-0.1-0.2v-0.8c0-0.1,0-0.2,0.1-0.2c0.1-0.1,0.1-0.1,0.2-0.1h1v-2.3c0-0.1,0-0.2,0.1-0.2c0.1-0.1,0.1-0.1,0.2-0.1
		h1c0.1,0,0.1,0,0.2,0.1c0.1,0.1,0.1,0.1,0.1,0.2v2.3h1.5c0.1,0,0.1,0,0.2,0.1c0.1,0.1,0.1,0.1,0.1,0.2v0.8c0,0.1,0,0.2-0.1,0.2
		c-0.1,0.1-0.1,0.1-0.2,0.1h-1.5v3c0,0.4,0.1,0.7,0.2,0.9c0.1,0.2,0.3,0.3,0.6,0.3h0.8c0.1,0,0.1,0,0.2,0.1c0.1,0.1,0.1,0.1,0.1,0.2
		v0.9c0,0.1,0,0.2-0.1,0.2c-0.1,0.1-0.1,0.1-0.2,0.1H320.5z"/>
	<path class="st0" d="M324.1,57.4c-0.1,0-0.1,0-0.2-0.1c0-0.1-0.1-0.1-0.1-0.2c0,0,0-0.1,0-0.1c0,0,0-0.1,0-0.1l0.9-2.6l-2.3-6.3
		c0-0.1,0-0.2,0-0.2c0-0.1,0-0.2,0.1-0.2c0-0.1,0.1-0.1,0.2-0.1h1c0.1,0,0.2,0,0.2,0.1c0,0.1,0.1,0.1,0.1,0.2l1.6,4.5l1.7-4.5
		c0-0.1,0.1-0.1,0.1-0.2c0-0.1,0.1-0.1,0.2-0.1h1c0.1,0,0.1,0,0.2,0.1c0.1,0.1,0.1,0.1,0.1,0.2c0,0.1,0,0.1,0,0.2l-3.4,9.1
		c0,0.1-0.1,0.1-0.1,0.2s-0.1,0.1-0.2,0.1H324.1z"/>
</g>
</svg>
