<?xml version="1.0" encoding="utf-8"?>
<!-- Generator: Adobe Illustrator 17.1.0, SVG Export Plug-In . SVG Version: 6.00 Build 0)  -->
<!DOCTYPE svg PUBLIC "-//W3C//DTD SVG 1.1//EN" "http://www.w3.org/Graphics/SVG/1.1/DTD/svg11.dtd">
<svg version="1.1" xmlns="http://www.w3.org/2000/svg" xmlns:xlink="http://www.w3.org/1999/xlink" x="0px" y="0px" width="106.13px" height="70px"
	 viewBox="0 0 423 279" enable-background="new 0 0 423 279" xml:space="preserve">
<g>
	<path fill="#A8D643" d="M368.9,52.2c-1.7,5.1-3.9,9.9-5.3,15.1c-2.9,10.8-4.4,21.7-5.8,32.8c-2.5,19.3-6.1,38.4-15.6,55.7
		c-8.4,15.3-18.3,29.3-33.4,38.8c-13.6,8.7-28.7,13.6-44.6,16c-14.2,2.1-28.6,2.8-42.9,3.9c-10.9,0.9-21.8,1.5-33,4.9
		c1.9-2.1,3.4-3.7,4.9-5.4c11.9-13.5,19.5-29.3,24.5-46.5c3.5-11.7,7-23.4,11.4-34.8c11.6-30.1,46.2-57.8,79.1-61.9
		c8.7-1.1,17.4-2.2,26-4.1c11.6-2.6,22.3-7.2,32.4-13.4C367.3,52.8,367.9,52.1,368.9,52.2L368.9,52.2z"/>
	<path fill="#34A02C" d="M134.3,43.3c-0.3-0.2-0.8-0.5-1.5-1c9.4-13.2,19.6-25.3,35.3-31C183,6,198,10,208.5,21.8
		c9.6,10.7,14.5,23.5,15.9,37.5c1.8,17.2,0,34.3-2.8,51.3c-3.7,22.5-9.6,44.5-17.3,65.9c-4,11-9.4,21.4-17.9,29.7
		c-5.3,5.2-11.4,8.6-18.7,10.1c-12.4,2.7-22-2.4-30.2-11c-8.5-8.9-13.2-19.9-15.5-31.9c-3.9-21.3-0.1-41.2,11.8-59.3
		c5.3-8.1,12.4-14.6,19.1-21.5c6.6-6.8,12.9-13.8,17-22.4c3.3-7.1,5.3-14.4,3.7-22.3c-2.8-13.9-16-20-28.5-13.2
		c-2,1.1-3.8,2.3-5.5,3.8C137.9,40.1,136.2,41.6,134.3,43.3z"/>
	<path fill="#18592B" d="M103.7,84.2c0.5,1.5,1,3,1.6,4.5c2.9,6.8,7.5,8.9,14.6,6.9c4.3-1.3,8.2-3.4,12.1-5.6
		c5.8-3.3,11.4-7.1,17.6-9.6c1.4-0.6,2.7-1.2,5-1.2c-1.1,0.9-1.8,1.3-2.3,1.8c-8.6,8-16.7,16.5-24.2,25.5
		c-12.5,14.9-17.1,32.5-16.6,51.7c0.3,10.1,1.9,20,4.3,29.9c-8.7-4.9-21.4-29.3-24.1-45.1C87.8,118.6,95.2,94.8,103.7,84.2z"/>
</g>
<g>
	<path fill="#18592B" d="M7.5,275c-0.9,0-1.6-0.1-2-0.4c-0.4-0.3-0.7-0.8-0.7-1.6v-15c0-5,4.1-7.5,12.2-7.5h9.4
		c8.1,0,12.2,2.5,12.2,7.5v15c0,0.8-0.2,1.4-0.7,1.6c-0.5,0.3-1.1,0.4-2.1,0.4c-0.9,0-1.6-0.1-2-0.4c-0.4-0.3-0.7-0.8-0.7-1.6v-15
		c0-0.9-0.5-1.6-1.6-2.2c-1.1-0.6-2.8-0.9-5.2-0.9h-9c-2.4,0-4.2,0.3-5.2,0.9c-1.1,0.6-1.6,1.3-1.6,2.2v15c0,0.8-0.2,1.4-0.7,1.6
		C9.1,274.9,8.4,275,7.5,275z"/>
	<path fill="#18592B" d="M45,250.5v-5c0-0.8,0.2-1.4,0.7-1.6c0.4-0.3,1.1-0.4,2-0.4c0.9,0,1.6,0.1,2.1,0.4c0.5,0.3,0.7,0.8,0.7,1.6
		v5h9.1c0.7,0,1.1,0.2,1.3,0.6c0.2,0.4,0.3,0.9,0.3,1.6s-0.1,1.3-0.3,1.6c-0.2,0.4-0.6,0.5-1.3,0.5h-9.1V273c0,0.8-0.2,1.4-0.7,1.6
		c-0.5,0.3-1.1,0.4-2.1,0.4c-0.9,0-1.6-0.1-2-0.4c-0.4-0.3-0.7-0.8-0.7-1.6v-18.1h-2.5c-0.7,0-1.1-0.2-1.3-0.5
		c-0.2-0.4-0.3-0.9-0.3-1.6s0.1-1.3,0.3-1.6c0.2-0.4,0.6-0.6,1.3-0.6H45z"/>
	<path fill="#18592B" d="M95.6,250.4c0.9,0,1.6,0.1,2,0.4c0.4,0.3,0.7,0.8,0.7,1.6v15c0,5-4.1,7.5-12.2,7.5H75.9
		c-8.1,0-12.2-2.5-12.2-7.5v-15c0-0.8,0.2-1.4,0.7-1.6c0.5-0.3,1.1-0.4,2.1-0.4c0.9,0,1.6,0.1,2,0.4c0.4,0.3,0.7,0.8,0.7,1.6v15
		c0,0.9,0.5,1.6,1.6,2.2c1.1,0.6,2.8,0.9,5.2,0.9H86c2.4,0,4.2-0.3,5.2-0.9c1.1-0.6,1.6-1.3,1.6-2.2v-15c0-0.8,0.2-1.4,0.7-1.6
		C94,250.5,94.7,250.4,95.6,250.4z"/>
	<path fill="#34A02C" d="M123.6,273c0,0.8-0.2,1.4-0.7,1.6c-0.5,0.3-1.1,0.4-2.1,0.4c-0.9,0-1.6-0.1-2-0.4
		c-0.4-0.3-0.7-0.8-0.7-1.6v-27.5c0-0.8,0.2-1.4,0.7-1.6c0.4-0.3,1.1-0.4,2-0.4c0.9,0,1.6,0.1,2.1,0.4c0.5,0.3,0.7,0.8,0.7,1.6V273
		z"/>
	<path fill="#34A02C" d="M127,246.2c0-0.9,0.3-1.6,0.8-2c0.5-0.4,1.4-0.6,2.6-0.6s2.1,0.2,2.6,0.6c0.5,0.4,0.8,1.1,0.8,2
		s-0.3,1.6-0.8,2c-0.5,0.4-1.4,0.6-2.6,0.6s-2.1-0.2-2.6-0.6C127.2,247.7,127,247.1,127,246.2z M133.1,273c0,0.8-0.2,1.4-0.7,1.6
		c-0.5,0.3-1.1,0.4-2.1,0.4c-0.9,0-1.6-0.1-2-0.4c-0.4-0.3-0.7-0.8-0.7-1.6v-20.3c0-0.8,0.2-1.4,0.7-1.6c0.4-0.3,1.1-0.4,2-0.4
		c0.9,0,1.6,0.1,2.1,0.4c0.5,0.3,0.7,0.8,0.7,1.6V273z"/>
	<path fill="#34A02C" d="M151.2,243.7c0.7,0,1.1,0.2,1.3,0.6c0.2,0.4,0.3,0.9,0.3,1.6c0,0.7-0.1,1.3-0.3,1.6
		c-0.2,0.4-0.6,0.5-1.3,0.5h-3.1c-1.9,0-3.3,0.2-4.2,0.6c-0.8,0.4-1.3,1.1-1.5,1.9h8.7c0.7,0,1.1,0.2,1.3,0.6
		c0.2,0.4,0.3,0.9,0.3,1.6s-0.1,1.3-0.3,1.6c-0.2,0.4-0.6,0.5-1.3,0.5h-8.8V273c0,0.8-0.2,1.4-0.7,1.6c-0.5,0.3-1.1,0.4-2.1,0.4
		c-0.9,0-1.6-0.1-2-0.4c-0.4-0.3-0.7-0.8-0.7-1.6v-21.9c0-2.5,1-4.4,2.9-5.6c1.9-1.2,4.7-1.8,8.3-1.8H151.2z"/>
	<path fill="#34A02C" d="M160,265.2v2.2c0,0.9,0.5,1.6,1.6,2.2c1.1,0.6,2.8,0.9,5.2,0.9h4.9c0.7,0,1.1,0.2,1.3,0.5
		c0.2,0.4,0.3,0.9,0.3,1.6c0,0.7-0.1,1.3-0.3,1.6c-0.2,0.4-0.6,0.6-1.3,0.6h-5.1c-8.1,0-12.2-2.5-12.2-7.5V258
		c0-5,4.1-7.5,12.2-7.5h9.9c4.3,0,7.4,0.6,9.3,1.8c1.9,1.2,2.9,3.1,2.9,5.6v4.9c0,0.8-0.2,1.4-0.5,1.7c-0.3,0.3-1,0.5-2.1,0.5H160z
		 M160,260.9h23.3V258c0-1-0.5-1.8-1.6-2.3s-2.8-0.8-5.3-0.8h-9.6c-2.4,0-4.2,0.3-5.2,0.9c-1.1,0.6-1.6,1.3-1.6,2.2V260.9z"/>
	<path fill="#A8D643" d="M190.8,257c0-2,0.9-3.6,2.6-4.7c1.7-1.1,4.3-1.7,7.7-1.7h5.9c0.7,0,1.1,0.2,1.3,0.5
		c0.2,0.4,0.3,0.9,0.3,1.7c0,0.7-0.1,1.3-0.3,1.6c-0.2,0.4-0.6,0.5-1.3,0.5h-5.9c-1.6,0-2.8,0.2-3.6,0.6s-1.2,0.9-1.2,1.6v1.1
		c0,0.7,0.4,1.2,1.2,1.6c0.8,0.4,2.1,0.6,3.8,0.6h9.5c4,0,6.9,0.6,8.7,1.7s2.7,2.8,2.7,4.8v1.4c0,1-0.2,2-0.7,2.8
		c-0.5,0.8-1.2,1.5-2.2,2.1c-1,0.6-2.2,1-3.8,1.3c-1.5,0.3-3.4,0.5-5.5,0.5h-17.4c-0.7,0-1.1-0.2-1.3-0.5c-0.2-0.4-0.3-0.9-0.3-1.7
		c0-0.7,0.1-1.3,0.3-1.6c0.2-0.4,0.6-0.5,1.3-0.5h18.2c1.1,0,2.1,0,2.9-0.2s1.4-0.2,1.8-0.4s0.8-0.4,0.9-0.7s0.3-0.6,0.3-0.9v-1.5
		c0-0.3-0.1-0.6-0.3-0.9c-0.2-0.3-0.5-0.5-0.9-0.7c-0.4-0.2-1-0.4-1.7-0.5s-1.7-0.2-2.8-0.2h-9.6c-3.5,0-6.1-0.6-7.8-1.7
		c-1.7-1.1-2.6-2.7-2.6-4.7V257z"/>
	<path fill="#A8D643" d="M236.8,274.8c-8.1,0-12.2-2.5-12.2-7.5V258c0-5,4.1-7.5,12.2-7.5h21.5c0.7,0,1.1,0.2,1.3,0.5
		s0.3,0.9,0.3,1.7c0,0.7-0.1,1.3-0.3,1.6s-0.6,0.5-1.3,0.5H237c-2.4,0-4.2,0.3-5.2,0.9c-1.1,0.6-1.6,1.3-1.6,2.2v9.3
		c0,0.9,0.5,1.6,1.6,2.2c1.1,0.6,2.8,0.9,5.2,0.9h21.5c0.7,0,1.1,0.2,1.3,0.5c0.2,0.4,0.3,0.9,0.3,1.6c0,0.7-0.1,1.3-0.3,1.6
		c-0.2,0.4-0.6,0.6-1.3,0.6H236.8z"/>
	<path fill="#A8D643" d="M262.5,246.2c0-0.9,0.3-1.6,0.8-2c0.5-0.4,1.4-0.6,2.6-0.6c1.2,0,2.1,0.2,2.6,0.6c0.5,0.4,0.8,1.1,0.8,2
		c0,0.9-0.3,1.6-0.8,2c-0.5,0.4-1.4,0.6-2.6,0.6c-1.2,0-2.1-0.2-2.6-0.6C262.8,247.7,262.5,247.1,262.5,246.2z M268.7,273
		c0,0.8-0.2,1.4-0.7,1.6c-0.5,0.3-1.1,0.4-2.1,0.4c-0.9,0-1.6-0.1-2-0.4s-0.7-0.8-0.7-1.6v-20.3c0-0.8,0.2-1.4,0.7-1.6
		c0.4-0.3,1.1-0.4,2-0.4c0.9,0,1.6,0.1,2.1,0.4c0.5,0.3,0.7,0.8,0.7,1.6V273z"/>
	<path fill="#A8D643" d="M277.6,265.2v2.2c0,0.9,0.5,1.6,1.6,2.2c1.1,0.6,2.8,0.9,5.2,0.9h4.9c0.7,0,1.1,0.2,1.3,0.5
		c0.2,0.4,0.3,0.9,0.3,1.6c0,0.7-0.1,1.3-0.3,1.6c-0.2,0.4-0.6,0.6-1.3,0.6h-5.1c-8.1,0-12.2-2.5-12.2-7.5V258
		c0-5,4.1-7.5,12.2-7.5h9.9c4.3,0,7.4,0.6,9.3,1.8c1.9,1.2,2.9,3.1,2.9,5.6v4.9c0,0.8-0.2,1.4-0.5,1.7s-1,0.5-2.1,0.5H277.6z
		 M277.6,260.9h23.3V258c0-1-0.5-1.8-1.6-2.3c-1.1-0.5-2.8-0.8-5.3-0.8h-9.6c-2.4,0-4.2,0.3-5.2,0.9c-1.1,0.6-1.6,1.3-1.6,2.2
		V260.9z"/>
	<path fill="#A8D643" d="M312,275c-0.9,0-1.6-0.1-2-0.4c-0.4-0.3-0.7-0.8-0.7-1.6v-15c0-5,4.1-7.5,12.2-7.5h9.4
		c8.1,0,12.2,2.5,12.2,7.5v15c0,0.8-0.2,1.4-0.7,1.6c-0.5,0.3-1.1,0.4-2.1,0.4c-0.9,0-1.6-0.1-2-0.4c-0.4-0.3-0.7-0.8-0.7-1.6v-15
		c0-0.9-0.5-1.6-1.6-2.2c-1.1-0.6-2.8-0.9-5.2-0.9h-9c-2.4,0-4.2,0.3-5.2,0.9c-1.1,0.6-1.6,1.3-1.6,2.2v15c0,0.8-0.2,1.4-0.7,1.6
		C313.6,274.9,312.9,275,312,275z"/>
	<path fill="#A8D643" d="M358.4,274.8c-8.1,0-12.2-2.5-12.2-7.5V258c0-5,4.1-7.5,12.2-7.5h21.5c0.7,0,1.1,0.2,1.3,0.5
		s0.3,0.9,0.3,1.7c0,0.7-0.1,1.3-0.3,1.6s-0.6,0.5-1.3,0.5h-21.3c-2.4,0-4.2,0.3-5.2,0.9c-1.1,0.6-1.6,1.3-1.6,2.2v9.3
		c0,0.9,0.5,1.6,1.6,2.2c1.1,0.6,2.8,0.9,5.2,0.9h21.5c0.7,0,1.1,0.2,1.3,0.5c0.2,0.4,0.3,0.9,0.3,1.6c0,0.7-0.1,1.3-0.3,1.6
		c-0.2,0.4-0.6,0.6-1.3,0.6H358.4z"/>
	<path fill="#A8D643" d="M389.9,265.2v2.2c0,0.9,0.5,1.6,1.6,2.2c1.1,0.6,2.8,0.9,5.2,0.9h4.9c0.7,0,1.1,0.2,1.3,0.5
		c0.2,0.4,0.3,0.9,0.3,1.6c0,0.7-0.1,1.3-0.3,1.6c-0.2,0.4-0.6,0.6-1.3,0.6h-5.1c-8.1,0-12.2-2.5-12.2-7.5V258
		c0-5,4.1-7.5,12.2-7.5h9.9c4.3,0,7.4,0.6,9.3,1.8c1.9,1.2,2.9,3.1,2.9,5.6v4.9c0,0.8-0.2,1.4-0.5,1.7s-1,0.5-2.1,0.5H389.9z
		 M389.9,260.9h23.3V258c0-1-0.5-1.8-1.6-2.3c-1.1-0.5-2.8-0.8-5.3-0.8h-9.6c-2.4,0-4.2,0.3-5.2,0.9c-1.1,0.6-1.6,1.3-1.6,2.2
		V260.9z"/>
</g>
</svg>
